<?xml version="1.0" encoding="UTF-8" standalone="no"?>
<svg
   width="1000"
   height="1000"
   stroke="#000000"
   fill="none"
   version="1.1"
   id="svg6"
   sodipodi:docname="conan_remote.svg"
   inkscape:version="1.1 (c68e22c387, 2021-05-23)"
   inkscape:export-filename="E:\projects\conan-guide\resources\icon\light\conan_remote.png"
   inkscape:export-xdpi="24.576"
   inkscape:export-ydpi="24.576"
   xmlns:inkscape="http://www.inkscape.org/namespaces/inkscape"
   xmlns:sodipodi="http://sodipodi.sourceforge.net/DTD/sodipodi-0.dtd"
   xmlns="http://www.w3.org/2000/svg"
   xmlns:svg="http://www.w3.org/2000/svg">
  <defs
     id="defs10" />
  <sodipodi:namedview
     id="namedview8"
     pagecolor="#ffffff"
     bordercolor="#666666"
     borderopacity="1.0"
     inkscape:pageshadow="2"
     inkscape:pageopacity="0.0"
     inkscape:pagecheckerboard="0"
     showgrid="false"
     inkscape:zoom="0.35018622"
     inkscape:cx="655.36559"
     inkscape:cy="798.14677"
     inkscape:window-width="1920"
     inkscape:window-height="1017"
     inkscape:window-x="-8"
     inkscape:window-y="-8"
     inkscape:window-maximized="1"
     inkscape:current-layer="svg6" />
  <path
     style="fill:#505050;stroke-width:1.50818"
     d="m 463.36519,973.76183 c -2.90325,-0.33189 -11.7261,-1.32796 -19.60633,-2.21345 C 407.53465,967.47808 362.82059,956.14487 326.875,941.92323 104.91135,854.10474 -17.865813,615.49447 40.286316,384.95488 60.889976,303.27329 101.0508,231.36561 160.22125,170.21226 249.3332,78.114004 372.20505,26.018637 500.31557,26.018637 c 152.01539,0 294.13065,72.543257 384.07612,196.052933 49.07466,67.38748 79.16173,146.19652 88.09432,230.75136 3.25582,30.81871 2.22866,85.30883 -2.14722,113.915 -13.91637,90.97473 -49.76695,171.0783 -106.96468,238.99883 -14.16237,16.81739 -47.5629,49.75831 -63.7036,62.82693 -56.87312,46.04861 -124.69139,78.9585 -195.24311,94.74481 -35.76888,8.00338 -54.5098,10.05543 -96.57094,10.57364 -21.56696,0.26576 -41.58803,0.21157 -44.49127,-0.12031 z m 16.58996,-175.0059 v -117.0779 l -16.96701,1.06752 c -29.41156,1.85049 -63.9662,6.96197 -93.13004,13.7762 -19.48599,4.55297 -42.5731,11.14787 -44.17112,12.61761 -1.35732,1.24836 12.23661,32.00718 22.64841,51.2463 26.8795,49.66837 57.7792,90.88875 98.72091,131.69435 20.17802,20.11086 24.52823,23.75378 28.36596,23.75378 h 4.53289 z m 73.69572,93.32408 c 40.45735,-40.22295 68.54719,-77.25265 95.65383,-126.09631 12.562,-22.63545 27.32213,-55.27732 25.69344,-56.82047 -3.15238,-2.9868 -50.24207,-14.75968 -78.1591,-19.54055 -18.17643,-3.11274 -59.5607,-7.55658 -70.37258,-7.55658 h -5.79048 v 116.88386 116.88383 h 4.54134 c 3.84611,0 8.19888,-3.63637 28.43355,-23.75378 z m -158.19273,3.01634 c -38.71123,-42.1246 -76.47495,-100.18321 -100.30541,-154.21128 -3.84165,-8.70973 -7.47751,-16.35054 -8.07966,-16.97959 -3.11968,-3.2589 -94.68958,43.26519 -99.05361,50.32634 -1.32382,2.14198 27.17265,30.88758 46.64947,47.05727 43.67016,36.25511 96.36109,64.27057 149.47494,79.47497 21.90058,6.26928 22.16313,6.13777 11.31427,-5.66771 z m 222.7518,5.04472 c 50.52325,-14.54237 101.98111,-41.55044 144.52877,-75.85698 17.35469,-13.99327 50.8319,-47.00593 50.0699,-49.37499 -2.0473,-6.36438 -95.84715,-54.64132 -99.17108,-51.04139 -0.59997,0.64982 -3.29107,6.27158 -5.98016,12.49283 -23.49985,54.36648 -61.19218,113.27109 -99.57067,155.60666 -5.77145,6.36656 -10.49358,11.96572 -10.49358,12.44243 0,1.48397 2.24894,1.01836 20.61682,-4.26856 z M 210.74524,714.80592 c 11.61298,-6.28268 29.93735,-15.25423 40.72083,-19.93677 10.78347,-4.68254 20.12289,-9.01129 20.75422,-9.61944 0.63136,-0.60813 -0.21763,-5.0747 -1.8866,-9.92569 C 257.95933,639.35734 244.7369,564.08565 244.69378,529.363 l -0.0146,-11.68839 H 164.74573 84.81226 v 7.60033 c 0,25.30471 8.84484,71.75525 20.17963,105.97749 12.38244,37.38538 25.878,65.46771 47.05958,97.92432 l 9.58348,14.68479 13.99787,-8.81629 c 7.69882,-4.84896 23.49939,-13.95667 35.11237,-20.23933 z m 639.58616,11.81525 c 38.41219,-58.41451 60.31599,-125.16784 65.96332,-201.02862 l 0.58951,-7.91794 h -79.52361 -79.5235 l -0.94263,4.71306 c -0.51843,2.59218 -0.94263,8.5348 -0.94263,13.20581 0,10.02717 -3.55948,41.78333 -6.95111,62.01461 -4.21934,25.16902 -11.00207,53.31891 -19.37378,80.40566 l -2.24345,7.25898 5.61216,2.33279 c 29.77166,12.37509 66.15958,31.11074 90.12915,46.40627 8.26249,5.2725 15.20747,9.65461 15.43309,9.738 0.22563,0.0835 5.52364,-7.62447 11.77348,-17.12862 z M 332.52078,665.498 c 39.95372,-11.52033 91.31479,-20.40776 128.20509,-22.18441 l 19.22928,-0.92608 v -62.35644 -62.35646 h -98.25836 -98.25836 l 1.00993,16.96701 c 1.38136,23.20683 5.02027,50.64062 9.95907,75.0817 4.3027,21.29312 15.17463,61.79821 16.5792,61.76842 0.44363,-0.01 10.13399,-2.70658 21.53415,-5.99374 z m 364.40186,-16.23479 c 10.70515,-38.54021 17.34391,-77.67808 19.31494,-113.8675 l 0.96513,-17.7211 h -98.2633 -98.26343 v 62.58942 62.58942 l 10.93429,0.0151 c 33.50602,0.0445 108.17063,12.99535 146.67038,25.44057 4.97702,1.60883 9.81724,2.98705 10.75607,3.06273 0.94992,0.0766 4.44718,-9.72782 7.88592,-22.10807 z M 245.18197,460.49184 c 2.27071,-42.23066 12.28557,-94.48724 27.25927,-142.23641 1.22912,-3.91951 1.76331,-7.40585 1.18705,-7.74741 -0.57625,-0.34154 -7.83452,-3.48715 -16.12951,-6.99021 -21.39109,-9.0337 -50.11458,-23.82464 -73.30344,-37.74703 -18.34008,-11.01125 -20.08218,-11.75334 -21.95985,-9.35445 -8.09741,10.34526 -25.44656,39.91956 -36.03348,61.42459 -15.19378,30.8629 -27.35453,66.25579 -33.72052,98.14092 -4.38817,21.97887 -7.66917,46.42524 -7.66917,57.14206 v 5.33807 h 79.7017 79.7017 z m 234.77318,-44.32121 v -62.29134 l -24.95734,-1.88453 c -42.15306,-3.18298 -83.20875,-10.53648 -123.78339,-22.17089 -10.41492,-2.98638 -19.19122,-5.17477 -19.5029,-4.86308 -0.31169,0.31168 -3.0006,9.01744 -5.97534,19.34611 -11.60048,40.27813 -18.45925,78.71471 -21.18062,118.69623 l -1.05221,15.45884 h 98.22589 98.22591 z m 236.78406,55.46164 c 0,-21.38078 -8.14576,-75.89158 -15.94285,-106.688 -3.483,-13.75688 -11.01845,-39.0015 -11.94354,-40.01222 -0.22647,-0.24739 -8.46656,1.88885 -18.31147,4.74721 -19.757,5.73623 -52.34092,13.03812 -74.4564,16.6853 -15.89083,2.62065 -58.67044,6.91857 -68.86439,6.91857 h -6.54458 v 62.58942 62.58942 h 98.03158 98.03165 z m 198.55584,-8.08087 c -2.78733,-42.53268 -16.94189,-95.66265 -37.25524,-139.8399 -9.08586,-19.75986 -23.99038,-44.92535 -40.85263,-68.97795 -0.52825,-0.7535 -3.92168,0.64929 -7.54094,3.11728 -18.09176,12.33703 -55.0054,31.90539 -85.00574,45.06258 -11.64514,5.1072 -17.91293,8.64574 -17.57862,9.92422 0.28573,1.09281 3.4454,12.16714 7.02167,24.60962 11.30068,39.31797 19.43409,85.26459 21.22439,119.90021 0.49318,9.53923 1.1578,18.19241 1.47701,19.22928 0.45473,1.47697 17.78618,1.88523 80.0339,1.88523 h 79.45337 z M 479.95515,199.44889 V 84.827304 h -4.72125 c -4.09902,0 -8.04141,3.32947 -29.91253,25.261996 -47.54569,47.67915 -84.0661,99.72456 -110.90791,158.05542 -4.5354,9.856 -7.74759,18.38661 -7.13823,18.95689 2.26506,2.11978 35.11047,10.69324 59.92692,15.6424 28.09104,5.60222 58.47287,9.42525 87.85142,11.05462 l 4.90158,0.27184 z m 86.72029,110.68666 c 33.9037,-3.63334 102.15705,-18.43951 106.90939,-23.19182 1.72386,-1.72385 -22.24255,-50.39582 -36.02794,-73.16714 C 614.6943,176.01132 584.79783,138.55897 551.1764,105.56476 533.18302,87.907054 529.34905,84.827304 525.36035,84.827304 h -4.68437 V 199.55253 314.27778 l 12.44247,-0.93975 c 6.84337,-0.51686 21.944,-1.95798 33.55699,-3.20248 z M 292.7828,264.65187 c 7.43108,-17.78693 30.3006,-60.84453 42.53749,-80.08742 15.78752,-24.82636 35.98231,-51.95515 54.01906,-72.56681 7.61054,-8.69703 13.23511,-16.013516 12.49903,-16.258876 -1.67548,-0.5585 -31.27424,8.371526 -49.32434,14.881286 -32.80859,11.83239 -82.07278,39.99603 -112.35931,64.23424 -13.79169,11.03743 -49.7699,45.31083 -49.7699,47.41155 0,3.08939 43.75026,27.4619 73.14667,40.74872 12.44247,5.62385 23.30136,10.23833 24.13086,10.25441 0.82949,0.0162 3.1337,-3.86162 5.12044,-8.6171 z M 735.02206,264.166 c 19.51786,-8.61513 59.29656,-29.77068 71.2475,-37.89153 l 5.34597,-3.63269 -18.40569,-18.20348 C 756.24888,167.88346 717.04691,140.79928 671.05777,120.04502 656.24979,113.36235 613.05484,98.371754 602.11762,96.119664 l -5.27858,-1.08693 3.16738,3.56932 c 26.98908,30.413646 51.48659,62.987176 69.51392,92.430386 12.41042,20.26933 33.03189,59.90961 39.09296,75.1477 1.56606,3.93701 3.46737,7.16075 4.22515,7.16385 0.75789,0.003 10.74054,-4.12697 22.18361,-9.17799 z"
     id="path864" />
  <rect
     style="fill:none;stroke:none;stroke-width:4.9007"
     id="rect1165"
     width="1000"
     height="1000"
     x="0.15577757"
     y="0.03475057"
     ry="0" />
</svg>
