<?xml version="1.0" encoding="UTF-8" standalone="no"?>
<!-- Created with Inkscape (http://www.inkscape.org/) -->

<svg
   width="500"
   height="500"
   viewBox="0 0 132.29166 132.29167"
   version="1.1"
   id="svg5"
   inkscape:export-filename="C:\Users\afrizal\Desktop\conan_io_icon_mono.png"
   inkscape:export-xdpi="49.05389"
   inkscape:export-ydpi="49.05389"
   inkscape:version="1.1 (c68e22c387, 2021-05-23)"
   sodipodi:docname="conan_io_icon.svg"
   xmlns:inkscape="http://www.inkscape.org/namespaces/inkscape"
   xmlns:sodipodi="http://sodipodi.sourceforge.net/DTD/sodipodi-0.dtd"
   xmlns="http://www.w3.org/2000/svg"
   xmlns:svg="http://www.w3.org/2000/svg">
  <sodipodi:namedview
     id="namedview7"
     pagecolor="#ffffff"
     bordercolor="#666666"
     borderopacity="1.0"
     inkscape:pageshadow="2"
     inkscape:pageopacity="0.0"
     inkscape:pagecheckerboard="0"
     inkscape:document-units="mm"
     showgrid="false"
     units="px"
     showguides="true"
     inkscape:guide-bbox="true"
     inkscape:zoom="1"
     inkscape:cx="404.5"
     inkscape:cy="421.5"
     inkscape:window-width="1920"
     inkscape:window-height="1017"
     inkscape:window-x="1912"
     inkscape:window-y="-8"
     inkscape:window-maximized="1"
     inkscape:current-layer="g23" />
  <defs
     id="defs2" />
  <g
     inkscape:label="border"
     inkscape:groupmode="layer"
     id="layer1"
     style="display:inline;opacity:1">
    <rect
       style="fill:none;fill-opacity:1;stroke:none;stroke-width:0.264583"
       id="rect10496"
       width="132.29167"
       height="132.29167"
       x="0"
       y="0" />
  </g>
  <g
     inkscape:groupmode="layer"
     id="layer2"
     inkscape:label="conan_io_icon_color"
     style="display:inline">
    <path
       style="display:inline;fill:#afd4e5;fill-opacity:1;stroke:none;stroke-width:0.361093px;stroke-linecap:butt;stroke-linejoin:miter;stroke-opacity:1"
       d="M 64.977092,2.0488097 1.294827,31.142682 64.977092,68.093119 131.52601,34.189166 Z"
       id="path178" />
    <path
       style="display:inline;fill:#6699cc;fill-opacity:1;stroke:none;stroke-width:0.361111px;stroke-linecap:butt;stroke-linejoin:miter;stroke-opacity:1"
       d="M 1.294827,31.142682 V 88.547268 L 64.974308,130.77202 V 68.093119 Z"
       id="path2276" />
    <path
       style="display:inline;fill:#7da7d3;fill-opacity:1;stroke:none;stroke-width:0.361111px;stroke-linecap:butt;stroke-linejoin:miter;stroke-opacity:1"
       d="M 64.970595,68.093119 131.52601,34.189166 V 92.09619 l -66.555415,38.67583 z"
       id="path8065" />
    <path
       style="display:inline;fill:#6699cc;fill-opacity:1;stroke:none;stroke-width:0.361111px;stroke-linecap:butt;stroke-linejoin:miter;stroke-opacity:1"
       d="M 89.33594,41.912644 105.73429,33.48841 C 97.05864,24.938789 87.71062,19.670059 77.31131,18.500777 69.51026,17.640155 60.712106,18.718713 53.222219,21.534055 35.241875,28.647044 32.785307,38.578423 41.707593,46.627556 c 5.588331,5.410576 12.444962,7.331375 19.978496,8.219745 L 76.68981,48.199153 c -8.06769,-0.41894 -26.123481,-0.188769 -26.317604,-10.279708 -0.06852,-0.828702 0.248614,-1.847363 0.446041,-2.297596 2.062474,-4.264452 4.633823,-6.222932 9.655347,-8.140104 9.542816,-3.417485 19.686026,-2.706702 26.901046,3.31027 3.32441,2.807396 3.96484,6.50201 1.9613,11.120629 z"
       id="path28666-1"
       sodipodi:nodetypes="cccccccccccc" />
    <path
       style="display:inline;fill:#336699;fill-opacity:1;stroke:#000000;stroke-width:0.361111px;stroke-linecap:butt;stroke-linejoin:miter;stroke-opacity:0"
       d="m 100.56121,49.963155 1.38978,-0.708175 v 60.02626 l -1.38979,0.80752 z"
       id="path403" />
  </g>
  <g
     inkscape:groupmode="layer"
     id="g23"
     inkscape:label="conan_io_icon_gray"
     style="display:none">
    <path
       style="display:inline;fill:#cccccc;fill-opacity:1;stroke:none;stroke-width:0.361093px;stroke-linecap:butt;stroke-linejoin:miter;stroke-opacity:1"
       d="M 64.977092,2.0488097 1.294827,31.142682 64.977092,68.093119 131.52601,34.189166 Z"
       id="path13" />
    <path
       style="display:inline;fill:#666666;fill-opacity:1;stroke:none;stroke-width:0.361111px;stroke-linecap:butt;stroke-linejoin:miter;stroke-opacity:1"
       d="M 1.294827,31.142682 V 88.547268 L 64.974308,130.77202 V 68.093119 Z"
       id="path15" />
    <path
       style="display:inline;fill:#999999;fill-opacity:1;stroke:none;stroke-width:0.361111px;stroke-linecap:butt;stroke-linejoin:miter;stroke-opacity:1"
       d="M 64.970595,68.093119 131.52601,34.189166 V 92.09619 l -66.555415,38.67583 z"
       id="path17" />
    <path
       style="display:inline;fill:#666666;fill-opacity:1;stroke:none;stroke-width:0.361111px;stroke-linecap:butt;stroke-linejoin:miter;stroke-opacity:1"
       d="M 89.33594,41.912644 105.73429,33.48841 C 97.05864,24.938789 87.71062,19.670059 77.31131,18.500777 69.51026,17.640155 60.712106,18.718713 53.222219,21.534055 35.241875,28.647044 32.785307,38.578423 41.707593,46.627556 c 5.588331,5.410576 12.444962,7.331375 19.978496,8.219745 L 76.68981,48.199153 c -8.06769,-0.41894 -26.123481,-0.188769 -26.317604,-10.279708 -0.06852,-0.828702 0.248614,-1.847363 0.446041,-2.297596 2.062474,-4.264452 4.633823,-6.222932 9.655347,-8.140104 9.542816,-3.417485 19.686026,-2.706702 26.901046,3.31027 3.32441,2.807396 3.96484,6.50201 1.9613,11.120629 z"
       id="path19"
       sodipodi:nodetypes="cccccccccccc" />
    <path
       style="display:inline;fill:#666666;fill-opacity:1;stroke:#000000;stroke-width:0.361111px;stroke-linecap:butt;stroke-linejoin:miter;stroke-opacity:0"
       d="m 100.56121,49.963155 1.38978,-0.708175 v 60.02626 l -1.38979,0.80752 z"
       id="path21" />
  </g>
  <g
     inkscape:groupmode="layer"
     id="g660"
     inkscape:label="conan_io_icon_mono"
     style="display:none">
    <path
       style="display:inline;fill:none;fill-opacity:1;stroke:#000000;stroke-width:0.361093px;stroke-linecap:butt;stroke-linejoin:miter;stroke-opacity:1"
       d="M 64.977092,2.0488097 1.294827,31.142682 64.977092,68.093119 131.52601,34.189166 Z"
       id="path650" />
    <path
       style="display:inline;fill:#000000;fill-opacity:1;stroke:#000000;stroke-width:0.361111px;stroke-linecap:butt;stroke-linejoin:miter;stroke-opacity:1"
       d="M 1.294827,31.142682 V 88.547268 L 64.974308,130.77202 V 68.093119 Z"
       id="path652" />
    <path
       style="display:inline;fill:none;fill-opacity:1;stroke:#000000;stroke-width:0.361111px;stroke-linecap:butt;stroke-linejoin:miter;stroke-opacity:1"
       d="M 64.970595,68.093119 131.52601,34.189166 V 92.09619 l -66.555415,38.67583 z"
       id="path654" />
    <path
       style="display:inline;fill:#000000;fill-opacity:1;stroke:none;stroke-width:0.361111px;stroke-linecap:butt;stroke-linejoin:miter;stroke-opacity:1"
       d="M 89.33594,41.912644 105.73429,33.48841 C 97.05864,24.938789 87.71062,19.670059 77.31131,18.500777 69.51026,17.640155 60.712106,18.718713 53.222219,21.534055 35.241875,28.647044 32.785307,38.578423 41.707593,46.627556 c 5.588331,5.410576 12.444962,7.331375 19.978496,8.219745 L 76.68981,48.199153 c -8.06769,-0.41894 -26.123481,-0.188769 -26.317604,-10.279708 -0.06852,-0.828702 0.248614,-1.847363 0.446041,-2.297596 2.062474,-4.264452 4.633823,-6.222932 9.655347,-8.140104 9.542816,-3.417485 19.686026,-2.706702 26.901046,3.31027 3.32441,2.807396 3.96484,6.50201 1.9613,11.120629 z"
       id="path656"
       sodipodi:nodetypes="cccccccccccc" />
    <path
       style="display:inline;fill:#000000;fill-opacity:1;stroke:#000000;stroke-width:0.361111px;stroke-linecap:butt;stroke-linejoin:miter;stroke-opacity:0"
       d="m 100.56121,49.963155 1.38978,-0.708175 v 60.02626 l -1.38979,0.80752 z"
       id="path658" />
  </g>
</svg>
