<?xml version="1.0" encoding="UTF-8" standalone="no"?>
<!-- Created with Inkscape (http://www.inkscape.org/) -->

<svg
   width="1000"
   height="1000"
   viewBox="0 0 264.58333 264.58334"
   version="1.1"
   id="svg838"
   inkscape:export-filename="E:\projects\conan-guide\resources\icon\light\conan_build.png"
   inkscape:export-xdpi="24.58"
   inkscape:export-ydpi="24.58"
   inkscape:version="1.1 (c68e22c387, 2021-05-23)"
   sodipodi:docname="conan_build.svg"
   xmlns:inkscape="http://www.inkscape.org/namespaces/inkscape"
   xmlns:sodipodi="http://sodipodi.sourceforge.net/DTD/sodipodi-0.dtd"
   xmlns="http://www.w3.org/2000/svg"
   xmlns:svg="http://www.w3.org/2000/svg">
  <sodipodi:namedview
     id="namedview840"
     pagecolor="#ffffff"
     bordercolor="#666666"
     borderopacity="1.0"
     inkscape:pageshadow="2"
     inkscape:pageopacity="0.0"
     inkscape:pagecheckerboard="0"
     inkscape:document-units="mm"
     showgrid="false"
     units="px"
     inkscape:zoom="0.52410025"
     inkscape:cx="434.07726"
     inkscape:cy="632.51258"
     inkscape:window-width="1920"
     inkscape:window-height="1017"
     inkscape:window-x="1912"
     inkscape:window-y="-8"
     inkscape:window-maximized="1"
     inkscape:current-layer="g2063" />
  <defs
     id="defs835">
    <clipPath
       clipPathUnits="userSpaceOnUse"
       id="clipPath1260">
      <rect
         style="fill:none;stroke-width:0.3004"
         id="rect1262"
         width="264.58337"
         height="264.58337"
         x="0"
         y="0" />
    </clipPath>
  </defs>
  <g
     inkscape:label="Layer 1"
     inkscape:groupmode="layer"
     id="layer1">
    <rect
       style="fill:none;stroke-width:0.219697"
       id="rect1286"
       width="264.58334"
       height="264.58334"
       x="0"
       y="0" />
    <g
       id="g2063"
       transform="translate(172.13214,18.017753)">
      <path
         style="fill:#505050;fill-opacity:1;stroke-width:0.504833"
         d="m 43.7943,51.12064 c -8.260339,-2.366169 -15.018795,-4.457795 -15.018795,-4.648062 0,-0.190265 2.044576,-1.983037 4.543499,-3.983927 2.498926,-2.000895 4.543502,-3.949441 4.543502,-4.330105 0,-1.614019 -11.491963,-11.034754 -19.18367,-15.72615 C 5.8895972,14.631871 -13.38664,8.0711136 -24.073716,7.8813666 c -1.748623,-0.031047 -3.181107,-0.2564831 -3.183303,-0.50097 -0.0079,-0.8778933 -21.558109,0.014105 -27.550665,1.140364 -23.378644,4.3938584 -41.955092,14.6082434 -58.988056,32.4349764 -3.01713,3.157744 -5.96518,6.017273 -6.55121,6.354506 -0.58602,0.337241 -2.01481,0.621207 -3.17509,0.631042 -1.71523,0.01455 -2.44662,-0.299966 -3.91246,-1.682427 -1.58972,-1.499296 -1.80264,-1.991691 -1.80097,-4.164875 0.003,-3.479356 1.04116,-4.945809 9.25535,-13.069292 14.24508,-14.087801 28.747807,-23.1183302 46.526852,-28.97126559 20.372705,-6.70677811 40.0525,-7.95482801 60.14948,-3.81454971 21.0331495,4.33314388 39.32289,13.5201005 55.754878,28.0057333 7.336792,6.467758 6.18233,6.292797 12.016165,1.821056 l 4.999173,-3.831961 0.328295,7.435776 c 0.473932,10.734593 0.465164,10.296708 0.368816,18.415905 -0.06653,5.606822 -0.24425,7.432839 -0.719402,7.391831 -0.347076,-0.02994 -7.389501,-1.99041 -15.649837,-4.356576 z"
         id="path1703" />
      <path
         style="fill:#505050;fill-opacity:1;stroke-width:0.504833"
         d="m -47.454344,234.42424 c -0.694148,-0.10219 -3.76101,-0.54937 -6.815254,-0.99372 -28.682627,-4.17296 -57.144612,-20.80383 -75.420082,-44.06937 -6.61007,-8.41494 -13.96146,-21.49829 -17.8979,-31.85312 -8.8051,-23.16184 -10.36131,-48.82225 -4.40875,-72.696013 0.79614,-3.193071 1.30154,-5.964084 1.12312,-6.157809 -0.17842,-0.193723 -2.70975,-1.40511 -5.62516,-2.691972 -2.91541,-1.286861 -5.46959,-2.50123 -5.67595,-2.698596 -0.20637,-0.197369 1.24821,-1.257731 3.23239,-2.356363 1.98418,-1.098632 4.1976,-2.33866 4.91871,-2.755617 0.7211,-0.41696 2.67415,-1.53093 4.3401,-2.475489 1.66595,-0.944563 3.71053,-2.108237 4.5435,-2.585945 9.20619,-5.279718 11.58424,-6.517929 11.87549,-6.183363 0.18756,0.215453 1.40907,5.048821 2.71447,10.740819 1.3054,5.691997 2.92981,12.750384 3.60979,15.685304 0.67999,2.934922 1.23634,5.586261 1.23634,5.891866 0,0.305604 -2.66931,-0.649841 -5.93179,-2.12321 -3.26249,-1.47337 -6.08561,-2.534486 -6.27361,-2.358033 -0.54741,0.5138 -2.28434,7.924564 -3.2699,13.951328 -1.35554,8.289243 -1.23512,23.572923 0.25445,32.295193 2.08011,12.18017 5.13859,21.71233 10.18008,31.72759 15.33917,30.47232 43.452215,51.30072 77.231952,57.21964 2.360097,0.41354 9.229625,0.9062 15.265609,1.09481 l 10.974528,0.34292 1.898724,1.8997 c 1.741831,1.74274 1.896544,2.12734 1.87226,4.6544 -0.02114,2.2035 -0.273703,3.01933 -1.262083,4.07725 -2.387706,2.55569 -3.293573,2.74637 -12.695505,2.67236 -4.803394,-0.0378 -9.301384,-0.15236 -9.995529,-0.25456 z"
         id="path1742" />
      <path
         style="fill:#505050;fill-opacity:1;stroke-width:0.504833"
         d="m 5.8055814,230.11442 c -8.0520936,-2.49099 -15.0330533,-4.68255 -15.5132456,-4.8701 -0.7547638,-0.29481 -0.4961678,-0.92252 1.9082782,-4.63211 1.5297467,-2.36009 4.2416861,-6.56283 6.0265335,-9.33942 1.78484742,-2.77658 4.4473336,-6.91135 5.9166389,-9.18838 1.4693053,-2.27703 2.932938,-4.54878 3.2525176,-5.04834 0.4885055,-0.76361 0.6236282,-0.78766 0.8483441,-0.15103 3.7665079,10.67078 4.2955129,11.8589 5.2064099,11.6934 1.223526,-0.2223 8.980371,-5.11105 13.798886,-8.69675 7.678081,-5.71364 17.478293,-15.98645 23.327156,-24.45207 4.541051,-6.57269 9.491519,-16.21437 12.182594,-23.72717 4.771697,-13.32137 5.966031,-19.92222 6.271805,-34.66286 0.324466,-15.64202 -0.933979,-24.520136 -5.242039,-36.981773 -3.553494,-10.278943 -3.46765,-13.05552 0.47802,-15.46135 3.664717,-2.234517 7.562532,-0.593468 9.645399,4.06088 2.709092,6.05372 5.676907,16.51013 7.450846,26.251339 1.004398,5.515434 1.149168,7.963974 1.149168,19.436084 0,11.37562 -0.148895,13.93661 -1.116741,19.20783 -2.478476,13.49861 -5.797957,23.67831 -11.331955,34.75115 -6.090463,12.18626 -12.512289,21.10767 -22.520646,31.28644 -8.136508,8.27505 -17.960485,15.7675 -27.224008,20.76292 -1.457706,0.78608 -2.650376,1.71501 -2.650376,2.0643 0,0.34928 0.908701,3.17175 2.019335,6.27214 1.110633,3.10039 2.019334,5.73179 2.019334,5.84754 0,0.44396 -1.693108,-0.0269 -15.9022546,-4.42267 z"
         id="path1781" />
      <path
         style="fill:#505050;fill-opacity:1;stroke-width:0.504833"
         d="m -48.590222,197.04188 c -0.798711,-0.20873 -0.883457,-1.07385 -0.883457,-9.01882 v -8.78795 l -1.262083,-0.26204 c -0.694148,-0.14412 -1.869237,-0.38979 -2.611319,-0.54594 -2.674601,-0.56279 -11.605262,-4.36385 -15.412958,-6.56004 -2.138913,-1.23368 -4.184517,-2.24305 -4.545785,-2.24305 -0.36127,0 -2.997269,2.38533 -5.857774,5.30075 -2.860508,2.91541 -5.484575,5.30075 -5.831258,5.30075 -1.035815,0 -17.486334,-16.92193 -17.486334,-17.98743 0,-0.54945 2.27277,-3.2269 5.30075,-6.24458 2.915415,-2.90549 5.300753,-5.52558 5.300753,-5.82242 0,-0.29685 -1.095685,-2.68625 -2.434855,-5.30978 -2.613895,-5.1208 -4.773051,-10.84522 -5.672442,-15.03893 l -0.558536,-2.60437 h -8.52257 c -7.90935,0 -8.56018,-0.0703 -9.04517,-0.97648 -0.70045,-1.30879 -0.70045,-22.9896 0,-24.29838 0.48511,-0.90644 1.13618,-0.97648 9.07738,-0.97648 h 8.55479 l 0.28717,-1.388293 c 0.8162,-3.94585 3.623755,-11.520972 5.827173,-15.722423 1.367883,-2.608262 2.48706,-4.997659 2.48706,-5.309769 0,-0.312113 -2.400581,-2.948758 -5.334625,-5.859209 -2.934038,-2.910453 -5.558278,-5.696254 -5.831628,-6.190667 -0.41701,-0.754248 0.90208,-2.318412 8.195466,-9.718046 4.780862,-4.850508 9.033184,-8.819107 9.449607,-8.819107 0.41642,0 3.170404,2.498926 6.119963,5.553168 2.949557,3.054244 5.694587,5.551672 6.100067,5.549841 0.405479,-0.0019 1.418762,-0.468352 2.251736,-1.036717 4.337227,-2.95942 14.847303,-7.393183 19.562297,-8.252512 l 1.893125,-0.34503 v -9.005247 c 0,-8.912027 0.01177,-9.008399 1.135875,-9.309651 0.624731,-0.16742 6.174295,-0.307504 12.332359,-0.311295 9.511768,-0.0058 11.315853,0.112474 11.989794,0.786416 0.657852,0.657852 0.793311,2.232847 0.793311,9.224007 v 8.430696 l 4.669708,1.414074 c 5.250945,1.590082 9.3151059,3.298843 13.7237627,5.770097 l 2.996049,1.679424 5.8461169,-5.830885 c 3.2153648,-3.206988 6.0531244,-5.830885 6.3061324,-5.830885 0.253002,0 2.260761,1.874195 4.461679,4.164875 2.200915,2.290681 6.189252,6.380112 8.86297,9.087623 l 4.861306,4.922747 -5.737902,5.754222 -5.737897,5.754222 1.777312,2.953533 c 3.736636,6.20953 6.687563,13.239752 7.967665,18.981996 l 0.64711,2.902795 h 8.400867 c 5.860899,0 8.584033,0.18316 9.006668,0.6058 0.913617,0.91361 0.85634,24.30431 -0.06138,25.06595 -0.407345,0.33807 -3.878009,0.6079 -8.911683,0.69286 l -8.244501,0.13914 -1.153195,4.29109 c -1.691227,6.29316 -4.797266,13.46856 -7.819577,18.0644 l -1.089885,1.65732 5.613262,5.68936 c 3.087293,3.12915 5.61326,6.02067 5.61326,6.42559 0,0.9655 -16.699558,17.637 -17.666681,17.637 -0.409168,0 -3.281818,-2.53067 -6.3836713,-5.62372 l -5.63972596,-5.62373 -1.68825334,1.03867 c -5.0000031,3.07618 -13.8584174,6.71616 -19.2312204,7.90222 l -1.388293,0.30647 v 8.28407 c 0,6.85787 -0.136578,8.42065 -0.793311,9.07738 -0.678214,0.67822 -2.45437,0.78482 -12.24221,0.73475 -6.296895,-0.0322 -11.846459,-0.16245 -12.332361,-0.28943 z m 21.834046,-47.87041 c 6.124985,-1.88503 10.120802,-4.31575 14.920767,-9.07654 4.8360436,-4.79657 7.059668,-8.33222 9.3684724,-14.89624 1.0052341,-2.85791 1.1541945,-4.25873 1.1541945,-10.85392 0,-6.59518 -0.1489604,-7.996 -1.1541945,-10.85392 C -6.7011668,91.452789 -14.712364,83.463735 -26.498776,79.525438 c -3.250152,-1.086 -11.690842,-1.551352 -15.962238,-0.880028 -8.982853,1.411809 -17.881801,7.150251 -23.263264,15.001193 -10.264447,14.974667 -7.841883,35.610707 5.605282,47.747267 3.899702,3.51962 10.906755,7.217 15.693652,8.281 4.265131,0.94801 13.839446,0.67524 17.669168,-0.5034 z"
         id="path1820" />
      <path
         style="fill:#505050;fill-opacity:1;stroke-width:0.504833"
         d="m -42.771638,142.60967 c -4.667493,-1.01418 -9.965369,-4.01729 -13.793001,-7.81859 -11.513394,-11.43417 -11.482395,-29.98394 0.0693,-41.470452 8.644144,-8.595365 21.367676,-10.813166 32.236499,-5.619049 4.740252,2.265326 10.607218,7.928324 13.055669,12.601781 2.0182391,3.85228 3.6306628,9.97617 3.6306628,13.789 0,3.81283 -1.6124237,9.93671 -3.6306628,13.78899 -2.452521,4.68123 -8.320439,10.34313 -13.028842,12.57142 -5.955186,2.81834 -12.168677,3.54122 -18.53963,2.1569 z"
         id="path1859" />
    </g>
  </g>
</svg>
