<?xml version="1.0" encoding="UTF-8" standalone="no"?>
<!-- Created with Inkscape (http://www.inkscape.org/) -->

<svg
   width="1000"
   height="1000"
   viewBox="0 0 264.58333 264.58334"
   version="1.1"
   id="svg39274"
   inkscape:version="1.1 (c68e22c387, 2021-05-23)"
   sodipodi:docname="conan_package.svg"
   inkscape:export-filename="E:\projects\conan-guide\resources\icon\light\conan_package.png"
   inkscape:export-xdpi="24.576"
   inkscape:export-ydpi="24.576"
   xmlns:inkscape="http://www.inkscape.org/namespaces/inkscape"
   xmlns:sodipodi="http://sodipodi.sourceforge.net/DTD/sodipodi-0.dtd"
   xmlns="http://www.w3.org/2000/svg"
   xmlns:svg="http://www.w3.org/2000/svg">
  <sodipodi:namedview
     id="namedview39276"
     pagecolor="#ffffff"
     bordercolor="#666666"
     borderopacity="1.0"
     inkscape:pageshadow="2"
     inkscape:pageopacity="0.0"
     inkscape:pagecheckerboard="0"
     inkscape:document-units="mm"
     showgrid="false"
     units="px"
     inkscape:zoom="0.52410025"
     inkscape:cx="428.35316"
     inkscape:cy="321.50338"
     inkscape:window-width="1920"
     inkscape:window-height="1017"
     inkscape:window-x="1912"
     inkscape:window-y="-8"
     inkscape:window-maximized="1"
     inkscape:current-layer="layer1" />
  <defs
     id="defs39271" />
  <g
     inkscape:label="Layer 1"
     inkscape:groupmode="layer"
     id="layer1">
    <path
       style="fill:#505050;fill-opacity:1;stroke-width:0.31139"
       d="m 49.202388,67.326825 c -0.823067,-0.506329 -3.033633,-1.981068 -6.724399,-4.486051 -1.855263,-1.259206 -3.758091,-2.517878 -4.228509,-2.797049 -0.470406,-0.27917 -1.226175,-0.76674 -1.679477,-1.083492 -2.11679,-1.479137 -7.682923,-5.216396 -8.610694,-5.781467 -0.569652,-0.346949 -1.481196,-0.942869 -2.025658,-1.324267 -0.544475,-0.3814 -2.319639,-1.587333 -3.944831,-2.679854 l -2.954889,-1.986401 h 9.683524 9.683524 V 31.417422 15.646594 h 11.678746 11.67876 v 15.770828 15.770822 h 9.683523 9.683524 l -2.954889,1.986401 c -1.625192,1.092521 -3.400356,2.298454 -3.944831,2.679854 -0.544462,0.381398 -1.456006,0.977318 -2.025658,1.324267 -0.92777,0.565071 -6.493903,4.30233 -8.610694,5.781467 -0.453302,0.316752 -1.209071,0.804322 -1.679476,1.083492 -0.470419,0.279171 -2.373247,1.537843 -4.228522,2.797049 -6.524247,4.428126 -7.132739,4.813424 -7.601737,4.813424 -0.189848,0 -0.584644,-0.147317 -0.877337,-0.327373 z"
       id="path41609" />
    <path
       style="fill:#505050;fill-opacity:1;stroke-width:0.31139"
       d="m 214.68654,69.468652 c -0.82307,-0.506329 -3.03364,-1.981068 -6.7244,-4.486051 -1.85527,-1.259206 -3.75809,-2.517878 -4.22851,-2.797049 -0.47041,-0.27917 -1.22618,-0.76674 -1.67948,-1.083492 -2.11679,-1.479137 -7.68292,-5.216396 -8.61069,-5.781467 -0.56965,-0.346949 -1.4812,-0.942869 -2.02566,-1.324267 -0.54448,-0.3814 -2.31964,-1.587333 -3.94483,-2.679854 l -2.95489,-1.986401 h 9.68352 9.68353 V 33.559249 17.788421 h 11.67874 11.67876 v 15.770828 15.770822 h 9.68353 9.68352 l -2.95489,1.986401 c -1.62519,1.092521 -3.40035,2.298454 -3.94483,2.679854 -0.54446,0.381398 -1.45601,0.977318 -2.02566,1.324267 -0.92777,0.565071 -6.4939,4.30233 -8.61069,5.781467 -0.4533,0.316752 -1.20907,0.804322 -1.67948,1.083492 -0.47042,0.279171 -2.37324,1.537843 -4.22852,2.797049 -6.52425,4.428126 -7.13274,4.813424 -7.60174,4.813424 -0.18984,0 -0.58464,-0.147317 -0.87733,-0.327373 z"
       id="path41609-9" />
    <rect
       style="fill:none;fill-opacity:1;stroke-width:0.45102"
       id="rect41834"
       width="264.58334"
       height="264.58334"
       x="0"
       y="0" />
    <g
       id="g920"
       transform="matrix(1.1202102,0,0,1.1202102,-19.925164,-30.743097)">
      <path
         style="display:inline;fill:#cccccc;fill-opacity:1;stroke:none;stroke-width:0.556655px;stroke-linecap:butt;stroke-linejoin:miter;stroke-opacity:1"
         d="M 134.14603,63.326442 35.974542,108.17706 134.14603,165.13922 236.73671,112.87347 Z"
         id="path13" />
      <path
         style="display:inline;fill:#505050;fill-opacity:1;stroke:none;stroke-width:0.556683px;stroke-linecap:butt;stroke-linejoin:miter;stroke-opacity:1"
         d="m 35.974542,108.17706 v 88.49393 l 98.167188,65.09295 v -96.62472 z"
         id="path15" />
      <path
         style="display:inline;fill:#999999;fill-opacity:1;stroke:none;stroke-width:0.556683px;stroke-linecap:butt;stroke-linejoin:miter;stroke-opacity:1"
         d="m 134.13601,165.13922 102.6007,-52.26575 v 89.26847 l -102.6007,59.622 z"
         id="path17" />
      <path
         style="display:inline;fill:#666666;fill-opacity:1;stroke:#000000;stroke-width:0.556683px;stroke-linecap:butt;stroke-linejoin:miter;stroke-opacity:0"
         d="m 189.0019,137.19038 2.14246,-1.09171 v 92.53545 l -2.14248,1.24486 z"
         id="path21" />
    </g>
    <path
       style="fill:#505050;fill-opacity:1;stroke-width:0.447945"
       d="m 131.94446,115.14893 c -0.82307,-1.04778 -3.03364,-4.09959 -6.7244,-9.28338 -1.85527,-2.60578 -3.75809,-5.21046 -4.22851,-5.78818 -0.47041,-0.577708 -1.22618,-1.586679 -1.67948,-2.242162 -2.11679,-3.060908 -7.68292,-10.794748 -8.61069,-11.964098 -0.56965,-0.717972 -1.4812,-1.951162 -2.02566,-2.740423 -0.54448,-0.789264 -2.31964,-3.284807 -3.94483,-5.545658 L 101.776,73.474395 h 9.68352 9.68353 V 40.838446 8.202484 h 11.67874 11.67876 v 32.635962 32.635949 h 9.68353 9.68352 l -2.95489,4.110634 c -1.62519,2.260851 -3.40035,4.756394 -3.94483,5.545658 -0.54446,0.789261 -1.45601,2.022451 -2.02566,2.740423 -0.92777,1.16935 -6.4939,8.90319 -8.61069,11.964098 -0.4533,0.655483 -1.20907,1.664454 -1.67948,2.242162 -0.47042,0.57772 -2.37324,3.1824 -4.22852,5.78818 -6.52425,9.16351 -7.13274,9.96085 -7.60174,9.96085 -0.18984,0 -0.58464,-0.30487 -0.87733,-0.67747 z"
       id="path41609-9-6" />
  </g>
</svg>
