<?xml version="1.0" encoding="UTF-8" standalone="no"?>
<!-- Created with Inkscape (http://www.inkscape.org/) -->

<svg
   width="1000"
   height="1000"
   viewBox="0 0 264.58333 264.58334"
   version="1.1"
   id="svg5463"
   inkscape:version="1.1 (c68e22c387, 2021-05-23)"
   sodipodi:docname="conan_export.svg"
   inkscape:export-filename="E:\projects\conan-guide\resources\icon\light\conan_export.png"
   inkscape:export-xdpi="24.576"
   inkscape:export-ydpi="24.576"
   xmlns:inkscape="http://www.inkscape.org/namespaces/inkscape"
   xmlns:sodipodi="http://sodipodi.sourceforge.net/DTD/sodipodi-0.dtd"
   xmlns="http://www.w3.org/2000/svg"
   xmlns:svg="http://www.w3.org/2000/svg">
  <sodipodi:namedview
     id="namedview5465"
     pagecolor="#ffffff"
     bordercolor="#666666"
     borderopacity="1.0"
     inkscape:pageshadow="2"
     inkscape:pageopacity="0.0"
     inkscape:pagecheckerboard="0"
     inkscape:document-units="mm"
     showgrid="false"
     units="px"
     inkscape:zoom="0.37059484"
     inkscape:cx="1.3491823"
     inkscape:cy="654.35342"
     inkscape:window-width="1920"
     inkscape:window-height="1017"
     inkscape:window-x="-8"
     inkscape:window-y="-8"
     inkscape:window-maximized="1"
     inkscape:current-layer="layer1" />
  <defs
     id="defs5460" />
  <g
     inkscape:label="Layer 1"
     inkscape:groupmode="layer"
     id="layer1">
    <path
       style="fill:#505050;fill-opacity:1;stroke-width:0.397165"
       d="m 16.285258,261.42397 c -2.830685,-0.96503 -4.988102,-2.59125 -6.8955749,-5.19778 -1.2818693,-1.75165 -1.8190653,-3.15793 -2.3414971,-6.12972 -0.5781285,-3.28856 -0.5781285,-231.886157 0,-235.174726 C 7.5690602,11.958838 8.1058222,10.549116 9.3821397,8.7920257 11.36992,6.055447 13.467958,4.5152623 16.818649,3.3328136 18.600798,2.7039006 23.203229,2.6434097 77.356218,2.5371477 L 135.965,2.4221439 136.93106,3.533285 c 0.53133,0.6111282 1.85698,2.1783957 2.94588,3.4828163 1.0889,1.3044195 3.30482,3.8908307 4.92425,5.7475797 1.61943,1.85675 3.32001,3.826704 3.77907,4.377677 0.96132,1.153785 5.89851,6.843334 6.19595,7.140126 0.10948,0.109224 1.53946,1.71774 3.17777,3.57449 1.63831,1.856749 3.06811,3.465271 3.17733,3.57449 0.10926,0.109224 0.90871,1.092205 1.77665,2.18441 0.86794,1.092208 2.3227,2.79009 3.23279,3.773075 0.91008,0.982983 2.16478,2.41278 2.78822,3.177326 0.62344,0.764542 1.36714,1.635321 1.65265,1.935057 0.28553,0.299741 2.07232,2.355073 3.97064,4.567405 1.89833,2.212335 3.72119,4.29086 4.0508,4.61895 0.3296,0.328093 1.89503,2.054606 3.47873,3.836696 l 2.87945,3.24016 v 16.518046 16.518046 h -2.40621 c -1.32341,0 -3.60215,0.166887 -5.06386,0.370854 -1.46171,0.203969 -3.5066,0.468636 -4.54419,0.588153 l -1.88654,0.217294 v -7.529601 -7.529597 l -24.1372,-0.108245 -24.13721,-0.108234 -1.97643,-1.278897 c -2.42023,-1.566067 -3.79791,-3.529728 -4.20348,-5.991436 -0.16895,-1.025462 -0.31783,-13.615611 -0.33086,-27.978114 l -0.0237,-26.11364 H 70.167618 c -49.349867,0 -48.147805,-0.04705 -49.203805,1.926094 -0.30453,0.569022 -0.42913,33.77341 -0.42913,114.356544 0,109.5594 0.02559,113.58425 0.728419,114.39458 0.400624,0.46193 1.216515,1.02545 1.81309,1.25226 1.513346,0.57537 143.929398,0.57537 145.442738,0 2.21029,-0.84036 2.54151,-1.68006 2.54151,-6.44325 v -4.3511 l 0.9636,0.24184 c 1.52147,0.38187 8.14261,1.02132 10.6535,1.02889 l 2.2837,0.007 -0.0146,4.6667 c -0.0284,9.08003 -1.73499,13.31849 -6.6803,16.59115 -3.4689,2.2956 1.43791,2.16842 -82.667353,2.14277 -72.867409,-0.0222 -77.365823,-0.0635 -79.313705,-0.72755 z M 171.06044,63.679497 c 0,-0.60811 -3.40658,-4.701384 -9.4857,-11.397839 -0.79322,-0.873765 -2.95675,-3.375908 -4.80784,-5.560318 -4.24209,-5.005921 -13.88707,-16.08887 -14.69008,-16.880198 -0.33287,-0.328025 -1.76639,-1.936543 -3.1856,-3.57449 -1.41921,-1.637945 -2.84901,-3.276791 -3.17733,-3.641885 -0.32831,-0.365092 -1.57992,-1.829281 -2.78135,-3.253753 -1.20141,-1.424475 -2.40782,-2.600241 -2.68086,-2.612816 -0.3919,-0.01805 -0.49646,4.995712 -0.49646,23.807077 v 23.829934 h 20.65261 c 19.63162,0 20.65261,-0.03539 20.65261,-0.715712 z"
       id="path9040" />
    <path
       style="fill:#505050;fill-opacity:1;stroke-width:0.397165"
       d="m 179.79809,237.92511 c -2.73052,-0.12652 -5.32203,-0.34514 -5.7589,-0.4858 -0.43688,-0.14067 -1.41988,-0.34296 -2.18441,-0.44954 -6.08721,-0.84851 -16.09109,-4.52598 -23.43277,-8.61397 -6.8555,-3.81727 -16.55495,-12.42094 -21.60917,-19.16794 -3.49078,-4.65989 -7.85045,-12.23405 -9.3047,-16.16524 -0.30146,-0.81493 -0.33227,-0.81558 -37.219068,-0.79053 -21.584112,0.0147 -37.577205,-0.12905 -38.506036,-0.34603 -4.906093,-1.14608 -5.107384,-8.19594 -0.272342,-9.53884 0.947945,-0.26327 13.972614,-0.40734 36.957188,-0.40878 l 35.493348,-0.002 -0.2453,-0.89362 c -0.13491,-0.49149 -0.53563,-2.72554 -0.89048,-4.96457 l -0.64517,-4.07094 H 76.75527 41.330275 l -1.660153,-1.42104 c -1.54422,-1.32162 -1.660153,-1.56168 -1.660153,-3.43754 0,-2.70585 1.25589,-4.39514 3.730866,-5.01834 1.258872,-0.31699 11.903615,-0.44922 36.161568,-0.44922 h 34.377527 v -1.9304 c 0,-1.06171 0.11366,-2.75959 0.25257,-3.77307 l 0.25257,-1.84268 H 77.877181 c -21.616356,0 -35.424795,-0.14825 -36.265452,-0.38934 -0.746654,-0.21414 -1.862501,-0.87311 -2.47966,-1.46439 -2.059008,-1.97266 -1.297367,-6.24151 1.3878,-7.77834 0.667916,-0.38228 9.308857,-0.54108 37.777284,-0.69423 l 36.911267,-0.19859 1.44752,-3.77308 c 6.81826,-17.77235 19.47235,-31.67125 36.33347,-39.907607 6.26854,-3.062072 14.1275,-5.75597 18.46821,-6.330532 10.57737,-1.40008 18.31419,-1.454719 25.61717,-0.18091 12.21162,2.129988 23.12485,6.958369 32.96475,14.584739 2.84888,2.208 10.1615,9.4497 12.33629,12.21663 6.0721,7.72539 10.55259,16.79317 13.42192,27.16384 2.57192,9.29567 2.874,21.22801 0.82448,32.56757 -0.28921,1.60015 -2.81091,10.1347 -3.34449,11.31922 -0.19679,0.43688 -0.74389,1.68796 -1.21575,2.78017 -1.66084,3.84428 -2.14691,4.79763 -4.20759,8.25253 -8.24947,13.83095 -20.66609,24.50872 -35.34761,30.39748 -5.10119,2.0461 -4.92497,1.987 -9.07735,3.04316 -8.17007,2.07807 -13.97807,2.60947 -23.63135,2.16216 z m 18.71594,-17.00581 c 5.94166,-1.54628 9.18612,-2.77985 13.85163,-5.26651 3.18231,-1.69612 7.20637,-4.27794 7.94332,-5.09639 0.10926,-0.12131 1.25636,-1.11019 2.54921,-2.19752 2.93496,-2.46841 7.42158,-7.5632 9.82523,-11.15702 4.56446,-6.82462 7.26968,-13.47995 8.86232,-21.80299 0.82164,-4.29379 0.823,-15.9404 0.002,-20.25132 -4.218,-22.15795 -20.50883,-39.68101 -42.09035,-45.27401 -8.16431,-2.11583 -19.39662,-2.27779 -27.20584,-0.39227 -0.54611,0.13185 -1.79717,0.43483 -2.78016,0.67327 -5.17686,1.25577 -12.34486,4.70728 -17.86,8.59986 -11.48148,8.10362 -19.75908,20.81979 -22.91456,35.20165 -1.01028,4.60459 -0.99968,18.09618 0.0179,22.83702 1.93675,9.02286 6.06445,17.72138 11.59072,24.42569 3.02266,3.66699 5.83308,6.41855 9.97201,9.76315 5.51137,4.45365 14.95158,8.64073 23.56272,10.45096 4.42575,0.93038 5.13066,0.97547 12.90788,0.82562 6.41299,-0.12357 7.62427,-0.26144 11.76555,-1.33919 z"
       id="path9079" />
    <path
       style="fill:#505050;fill-opacity:1;stroke-width:0.397165"
       d="m 181.38675,187.74851 v -9.36677 H 163.5143 145.64185 v -12.90788 -12.90789 h 17.87245 17.87245 v -9.33339 c 0,-5.13336 0.11753,-9.33339 0.26119,-9.33339 0.14365,0 1.17132,0.68598 2.2837,1.5244 3.76538,2.83805 14.32611,10.62768 15.72473,11.59864 0.76455,0.53076 1.65816,1.18273 1.98582,1.44881 0.96369,0.78259 14.76542,10.97936 16.2838,12.03054 0.76454,0.52929 1.47944,1.06134 1.58865,1.18232 0.10926,0.12099 1.23077,0.98775 2.49232,1.92612 l 2.29374,1.70614 -3.08806,2.29907 c -1.69844,1.26449 -5.50085,4.08187 -8.44981,6.26084 -2.94896,2.17896 -7.50643,5.54696 -10.12772,7.48446 -2.62129,1.93749 -6.46388,4.76981 -8.53906,6.29405 -8.215,6.03395 -9.78652,7.19755 -11.21992,8.30745 l -1.48938,1.15324 z"
       id="path9118" />
    <rect
       style="fill:none;fill-opacity:1;stroke-width:1.08394"
       id="rect10161"
       width="264.58334"
       height="264.58334"
       x="0"
       y="0" />
  </g>
</svg>
