<?xml version="1.0" encoding="UTF-8" standalone="no"?>
<!-- Created with Inkscape (http://www.inkscape.org/) -->

<svg
   width="1000"
   height="1000"
   viewBox="0 0 264.58333 264.58334"
   version="1.1"
   id="svg39274"
   inkscape:version="1.1 (c68e22c387, 2021-05-23)"
   sodipodi:docname="conan_package_export.svg"
   inkscape:export-filename="E:\projects\conan-guide\resources\icon\light\conan_export_package.png"
   inkscape:export-xdpi="24.576"
   inkscape:export-ydpi="24.576"
   xmlns:inkscape="http://www.inkscape.org/namespaces/inkscape"
   xmlns:sodipodi="http://sodipodi.sourceforge.net/DTD/sodipodi-0.dtd"
   xmlns="http://www.w3.org/2000/svg"
   xmlns:svg="http://www.w3.org/2000/svg">
  <sodipodi:namedview
     id="namedview39276"
     pagecolor="#ffffff"
     bordercolor="#666666"
     borderopacity="1.0"
     inkscape:pageshadow="2"
     inkscape:pageopacity="0.0"
     inkscape:pagecheckerboard="0"
     inkscape:document-units="mm"
     showgrid="false"
     units="px"
     inkscape:zoom="0.52410024"
     inkscape:cx="472.23791"
     inkscape:cy="413.08892"
     inkscape:window-width="1920"
     inkscape:window-height="1017"
     inkscape:window-x="1912"
     inkscape:window-y="-8"
     inkscape:window-maximized="1"
     inkscape:current-layer="layer1" />
  <defs
     id="defs39271" />
  <g
     inkscape:label="Layer 1"
     inkscape:groupmode="layer"
     id="layer1">
    <rect
       style="fill:none;fill-opacity:1;stroke-width:0.45102"
       id="rect41834"
       width="264.58334"
       height="264.58334"
       x="0"
       y="0" />
    <g
       id="g4796">
      <path
         style="display:inline;fill:#cccccc;fill-opacity:1;stroke:none;stroke-width:0.623571px;stroke-linecap:butt;stroke-linejoin:miter;stroke-opacity:1"
         d="M 115.27289,36.587689 5.3001861,86.829808 115.27289,150.6394 230.19603,92.090777 Z"
         id="path13" />
      <path
         style="display:inline;fill:#505050;fill-opacity:1;stroke:none;stroke-width:0.623601px;stroke-linecap:butt;stroke-linejoin:miter;stroke-opacity:1"
         d="M 5.3001861,86.829808 V 185.96162 L 115.26808,258.87941 V 150.6394 Z"
         id="path15" />
      <path
         style="display:inline;fill:#999999;fill-opacity:1;stroke:none;stroke-width:0.623601px;stroke-linecap:butt;stroke-linejoin:miter;stroke-opacity:1"
         d="M 115.26167,150.6394 230.19603,92.090777 v 99.999463 l -114.93436,66.78917 z"
         id="path17" />
      <path
         style="display:inline;fill:#505050;fill-opacity:1;stroke:#000000;stroke-width:0.623601px;stroke-linecap:butt;stroke-linejoin:miter;stroke-opacity:0"
         d="m 176.723,119.33083 2.40001,-1.22294 v 103.65915 l -2.40003,1.39451 z"
         id="path21" />
    </g>
    <path
       style="fill:#1e1e1e;fill-opacity:1;stroke-width:0.179429"
       d="m 118.18224,96.384811 c -0.003,-0.06248 -0.24167,-0.727293 -0.52919,-1.477312 -1.64529,-4.291916 -3.34669,-10.167128 -4.12456,-14.242847 -0.72762,-3.812379 -1.0519,-8.614155 -0.82882,-12.273084 0.34004,-5.577382 1.59281,-9.990761 4.13225,-14.557319 1.06132,-1.908546 3.62863,-5.291434 4.89565,-6.450899 0.33241,-0.304193 0.79561,-0.741407 1.02934,-0.971587 2.11685,-2.084742 5.49387,-4.4697 9.25021,-6.532796 6.59286,-3.620999 16.14154,-6.554964 27.29582,-8.387013 4.57973,-0.752207 13.00764,-1.625524 18.91043,-1.959538 3.63583,-0.205738 11.3629,-0.460293 13.97037,-0.460228 l 2.07164,5e-5 v -9.05907 -9.05907 l 0.47807,-0.667281 c 0.68064,-0.9500165 1.80983,-1.5447479 3.1009,-1.6332136 1.05955,-0.072599 2.36882,0.1431623 2.8504,0.4697351 0.14501,0.098334 1.02857,0.6073361 1.96347,1.1311145 0.93489,0.523778 1.84324,1.035314 2.01852,1.136746 0.17531,0.101433 1.17916,0.660832 2.23081,1.243112 1.05165,0.582279 2.05561,1.141772 2.23101,1.243319 0.36832,0.213229 2.54263,1.441514 3.62078,2.045402 5.04833,2.827662 6.80929,3.810535 8.70308,4.857602 1.22706,0.678431 2.27881,1.273667 2.33725,1.322748 0.0585,0.04908 0.96677,0.561345 2.01853,1.138364 1.05175,0.577017 1.9601,1.085517 2.01853,1.129997 0.0585,0.04448 0.4887,0.281431 0.95615,0.526559 0.46745,0.245127 0.89772,0.485295 0.95614,0.533706 0.0585,0.04841 0.96677,0.560126 2.01853,1.137144 1.05176,0.577019 1.96011,1.088399 2.01853,1.136398 0.0585,0.048 0.96678,0.560686 2.01854,1.139307 1.05174,0.578619 2.39713,1.326728 2.98972,1.662465 0.59259,0.335735 1.44643,0.814982 1.89742,1.064988 0.79591,0.44121 3.07289,1.721301 3.71838,2.09042 0.17539,0.100307 1.17935,0.656393 2.231,1.235748 1.05165,0.579358 1.9599,1.095297 2.01833,1.146533 0.0585,0.05123 0.67806,0.395421 1.37696,0.764858 3.16669,1.673902 3.7272,2.202766 3.71781,3.50783 -0.0109,1.418775 -0.64801,1.895974 -7.47887,5.595581 -0.36195,0.196038 -1.19939,0.663256 -1.86095,1.038269 -1.63567,0.927175 -2.28337,1.289499 -4.99769,2.795722 -3.32872,1.847151 -10.15796,5.657255 -11.36773,6.34217 -0.1754,0.09931 -1.17935,0.656969 -2.231,1.239251 -1.05165,0.582281 -2.05551,1.141938 -2.23081,1.24369 -0.1753,0.101742 -1.37047,0.766844 -2.65596,1.477991 -1.28549,0.711147 -3.24559,1.803033 -4.35578,2.426419 -1.11019,0.623386 -3.07029,1.717811 -4.35577,2.432065 -3.25204,1.806921 -3.64737,2.028014 -5.00819,2.800877 -0.66033,0.375009 -1.51589,0.852296 -1.90129,1.060638 -1.26093,0.681638 -3.92045,2.189478 -4.21257,2.388362 -0.91154,0.62061 -2.55697,0.891652 -3.87685,0.638615 -1.15225,-0.22088 -2.3391,-1.064942 -2.69774,-1.918554 -0.18905,-0.449986 -0.25766,-2.954955 -0.25766,-9.408411 v -8.795145 l -5.04632,0.06358 c -9.16114,0.115367 -17.04504,0.548799 -23.42557,1.287876 -3.09347,0.358319 -3.96965,0.46637 -4.78074,0.589565 -0.46746,0.07097 -1.4236,0.21256 -2.12477,0.314575 -5.32268,0.77445 -11.64994,2.305227 -16.12166,3.900369 -4.52744,1.615033 -7.67917,3.172211 -10.94464,5.407471 -9.59491,6.567865 -13.9884,16.212861 -13.58031,29.812737 0.0569,1.895889 0.0706,3.447074 0.0304,3.447074 -0.0403,0 -0.076,-0.0511 -0.0795,-0.113645 z"
       id="path4279" />
  </g>
</svg>
