<?xml version="1.0" encoding="UTF-8" standalone="no"?>
<!-- Created with Inkscape (http://www.inkscape.org/) -->

<svg
   width="1000"
   height="1000"
   viewBox="0 0 264.58333 264.58334"
   version="1.1"
   id="svg36143"
   inkscape:version="1.1 (c68e22c387, 2021-05-23)"
   sodipodi:docname="conan_source.svg"
   inkscape:export-filename="E:\projects\conan-guide\resources\icon\light\conan_source.png"
   inkscape:export-xdpi="24.576"
   inkscape:export-ydpi="24.576"
   xmlns:inkscape="http://www.inkscape.org/namespaces/inkscape"
   xmlns:sodipodi="http://sodipodi.sourceforge.net/DTD/sodipodi-0.dtd"
   xmlns="http://www.w3.org/2000/svg"
   xmlns:svg="http://www.w3.org/2000/svg">
  <sodipodi:namedview
     id="namedview36145"
     pagecolor="#ffffff"
     bordercolor="#666666"
     borderopacity="1.0"
     inkscape:pageshadow="2"
     inkscape:pageopacity="0.0"
     inkscape:pagecheckerboard="0"
     inkscape:document-units="mm"
     showgrid="false"
     units="px"
     inkscape:zoom="0.52410025"
     inkscape:cx="414.99694"
     inkscape:cy="332.95157"
     inkscape:window-width="1920"
     inkscape:window-height="1017"
     inkscape:window-x="-8"
     inkscape:window-y="-8"
     inkscape:window-maximized="1"
     inkscape:current-layer="layer1" />
  <defs
     id="defs36140" />
  <g
     inkscape:label="Layer 1"
     inkscape:groupmode="layer"
     id="layer1">
    <g
       id="g38839"
       transform="matrix(0.95142994,0,0,0.95142994,-19.43857,-2.3510923)">
      <path
         style="fill:#505050;fill-opacity:1;stroke-width:0.356971"
         d="m 39.30635,270.55845 c -3.534949,-0.70172 -6.252125,-2.86928 -7.978915,-6.36499 l -1.163373,-2.35512 V 161.70793 61.577523 l 0.842087,-1.745789 c 1.06794,-2.214028 3.249808,-4.590206 5.232246,-5.698212 2.470957,-1.381043 5.290257,-1.658763 16.839052,-1.658763 h 10.717884 l 0.186336,-5.544431 c 0.178572,-5.313347 0.233087,-5.639395 1.307986,-7.822827 1.293321,-2.627103 2.929723,-4.202062 5.731318,-5.516118 l 1.97963,-0.928523 12.374566,-0.12056 12.374565,-0.120562 0.119425,-5.769463 c 0.114049,-5.509728 0.164732,-5.85785 1.125844,-7.732804 1.334989,-2.604325 2.825269,-4.110294 5.419059,-5.476128 l 2.14183,-1.127838 49.79747,-0.08929 c 27.38861,-0.04911 49.96119,0.03121 50.16128,0.178485 0.2001,0.147276 1.40487,1.469853 2.67729,2.93906 1.27241,1.469207 3.51825,4.048503 4.99076,5.73177 1.47251,1.683267 5.06406,5.82237 7.98123,9.198006 l 5.30395,6.137521 h 10.09169 10.09169 l 1.71207,2.052582 c 0.94163,1.128922 1.89175,2.213224 2.11137,2.409558 0.21962,0.196334 2.79366,3.168118 5.7201,6.603965 4.69333,5.510313 6.33724,7.392855 8.39175,9.609902 0.57517,0.620681 4.61267,5.305206 6.04927,7.018684 1.56213,1.86322 5.49738,6.391365 5.7137,6.574539 0.11593,0.09817 2.13036,2.427404 4.47652,5.176081 2.34615,2.748679 4.87238,5.640144 5.61382,6.42548 l 1.34809,1.427885 -0.0884,80.675487 -0.0884,80.67547 -0.85547,2.12378 c -1.07996,2.68107 -3.40924,5.19008 -6.03374,6.49928 l -2.03507,1.01516 -50.06521,0.0988 -50.0652,0.0988 v 3.17146 c 0,5.48212 -2.33101,9.5448 -6.71022,11.69517 l -2.03557,0.99955 -64.96875,0.0534 c -35.732815,0.0294 -65.673833,-0.0865 -66.5356,-0.25759 z m 127.43563,-11.85526 c 1.00287,-0.67371 1.23165,-1.06921 1.32092,-2.28351 l 0.10796,-1.46867 -10.10315,-0.14549 -10.10317,-0.14548 -2.01122,-0.98444 c -1.10617,-0.54144 -2.37911,-1.37604 -2.82875,-1.85466 l -0.81753,-0.87022 h -33.07053 c -21.874703,0 -33.787619,-0.12897 -35.188677,-0.38097 -4.211253,-0.75744 -7.058444,-2.8796 -8.948235,-6.66961 l -1.023277,-2.05219 -0.09477,-88.79657 -0.09477,-88.796572 H 53.606934 43.327083 l -0.959215,1.001204 -0.959213,1.001202 v 95.404476 c 0,64.48018 0.118616,95.62611 0.365946,96.08825 0.979402,1.83003 -2.313472,1.73841 63.032889,1.75379 l 60.72154,0.0143 z m 109.34647,-16.29276 0.92116,-0.86541 V 170.75716 99.969313 l -19.90114,-0.09794 -19.90114,-0.09794 -1.60637,-0.834152 c -1.9039,-0.988655 -3.28835,-2.489538 -3.95409,-4.286641 -0.38303,-1.033936 -0.50701,-6.028217 -0.59748,-24.06623 l -0.11415,-22.761541 -39.22558,0.09388 -39.22558,0.09387 -0.92113,0.86541 -0.92113,0.865412 v 95.716299 c 0,76.02132 0.0918,95.83735 0.44622,96.30457 1.35029,1.78016 -1.99241,1.69569 63.33365,1.60026 l 60.7456,-0.0887 z M 138.86178,235.0655 v -4.46214 h -14.39177 c -8.63778,0 -15.23863,-0.15231 -16.50992,-0.38097 -4.29194,-0.77195 -7.08761,-2.84197 -8.94064,-6.62001 l -1.030868,-2.10178 -0.09204,-88.79657 -0.09204,-88.796577 h -9.831635 c -10.433306,0 -11.415266,0.141091 -12.284401,1.76508 -0.249459,0.466124 -0.367552,31.356749 -0.367552,96.145417 0,92.28721 0.02188,95.48386 0.658883,96.21832 0.362383,0.41783 1.04509,0.91414 1.517127,1.10291 0.52398,0.20954 12.641088,0.35202 31.111546,0.36583 l 30.25331,0.0226 z m 0.005,-101.46905 c 0.006,-91.62117 -0.0738,-87.484063 1.74797,-91.054925 0.89985,-1.763844 3.42367,-4.060803 5.60373,-5.100007 l 1.74578,-0.832197 20.97206,-0.122179 20.97205,-0.122177 V 29.96253 23.560096 H 150.8731 111.83755 l -1.21295,0.817402 -1.21294,0.817402 -0.0899,95.93735 -0.0899,95.93735 0.87686,0.87686 0.87686,0.87685 h 13.9381 13.9381 z M 277.00961,87.773437 c 0,-0.574862 -2.74428,-4.139022 -4.64062,-6.027044 -0.0986,-0.09817 -1.21739,-1.383263 -2.48619,-2.855769 -1.26881,-1.472507 -2.55373,-2.935391 -2.85538,-3.250862 -0.30165,-0.315465 -0.93641,-1.038333 -1.41058,-1.60637 -1.67982,-2.012378 -5.17112,-6.035479 -5.54303,-6.387359 -0.20752,-0.196334 -1.2608,-1.401111 -2.34064,-2.677284 -1.07984,-1.276173 -2.12398,-2.494735 -2.32031,-2.707915 -1.17026,-1.270683 -4.88698,-5.515912 -5.75499,-6.573335 -1.32391,-1.612821 -3.2638,-3.808217 -4.51253,-5.1069 -0.54245,-0.564147 -1.15049,-1.332569 -1.3512,-1.707608 -0.20071,-0.375036 -0.60024,-0.681887 -0.88783,-0.681887 -0.45305,0 -0.5229,2.694274 -0.5229,20.16887 v 20.16887 h 17.3131 17.3131 z M 212.39784,36.191996 c 0,-0.179768 -4.58395,-5.549253 -9.48873,-11.114773 -1.82763,-2.073837 -1.93435,-1.793188 -1.93435,5.086839 v 6.246996 h 5.71154 c 3.14134,0 5.71154,-0.09858 5.71154,-0.219062 z"
         id="path38439" />
      <path
         style="fill:#505050;fill-opacity:1;stroke-width:0.356971"
         d="m 172.23858,71.926367 c -0.78534,-0.286763 -1.46704,-0.523806 -1.51489,-0.526762 -0.0479,-0.003 -0.56992,-0.672025 -1.16015,-1.486818 -2.20392,-3.042417 -0.703,-6.805969 3.10084,-7.775352 1.94273,-0.495089 40.71459,-0.508238 42.85427,-0.01453 2.63038,0.60693 4.0204,2.357903 4.01626,5.05919 -0.003,1.810002 -0.84314,3.242392 -2.54147,4.33192 -1.1962,0.767398 -1.34744,0.773195 -22.26568,0.853194 -17.72407,0.06778 -21.28755,-0.0021 -22.48918,-0.440838 z"
         id="path38478" />
      <path
         style="fill:#505050;fill-opacity:1;stroke-width:0.356971"
         d="m 172.59555,97.934136 c -2.26654,-0.51063 -4.10517,-2.724568 -4.10517,-4.943152 0,-1.674649 1.41999,-3.865137 2.91406,-4.495253 0.97999,-0.413303 5.05077,-0.502343 22.96635,-0.502343 20.98078,0 21.81736,0.02548 22.92963,0.698259 2.97126,1.797233 2.94563,7.051644 -0.0424,8.687959 -1.00998,0.553098 -3.07726,0.613857 -22.53029,0.662175 -11.78005,0.02926 -21.73954,-0.01918 -22.13221,-0.107645 z"
         id="path38517" />
      <path
         style="fill:#505050;fill-opacity:1;stroke-width:0.356971"
         d="m 172.39966,123.75231 c -1.72915,-0.57162 -2.62481,-1.28157 -3.32066,-2.63212 -1.2737,-2.47209 -0.14095,-5.5012 2.53708,-6.78447 1.26137,-0.60444 3.64237,-0.64041 42.38813,-0.64041 38.55694,0 41.13189,0.0384 42.37162,0.63258 1.95188,0.93542 2.78523,2.3137 2.78523,4.60652 0,2.65212 -1.36786,4.35246 -3.94621,4.90542 -2.64665,0.5676 -81.0842,0.48471 -82.81519,-0.0875 z"
         id="path38556" />
      <path
         style="fill:#505050;fill-opacity:1;stroke-width:0.356971"
         d="m 171.13027,149.24938 c -1.42593,-0.86951 -2.63989,-2.84214 -2.63989,-4.28971 0,-1.34 0.85383,-3.124 1.91836,-4.00824 1.66251,-1.38095 3.04565,-1.42128 44.84486,-1.30751 38.52571,0.10487 40.58123,0.14261 41.83923,0.76824 3.55043,1.76568 3.66088,6.69199 0.19739,8.80371 -1.14348,0.69718 -1.88233,0.70935 -43.10753,0.70935 -40.52749,0 -41.98154,-0.0228 -43.05242,-0.67584 z"
         id="path38595" />
      <path
         style="fill:#505050;fill-opacity:1;stroke-width:0.356971"
         d="m 172.59555,175.65901 c -0.589,-0.14489 -1.42023,-0.48276 -1.84718,-0.75083 -1.08449,-0.68093 -2.25799,-2.90319 -2.25799,-4.27597 0,-1.53908 1.23395,-3.6544 2.62169,-4.49429 1.09192,-0.66086 2.41986,-0.68179 43.24911,-0.68179 41.56544,0 42.13526,0.009 43.0801,0.71394 1.29255,0.96375 2.43372,3.05605 2.43372,4.46214 0,1.40609 -1.14117,3.49839 -2.43372,4.46214 -0.94357,0.70355 -1.56031,0.71477 -42.36616,0.77101 -22.77476,0.0314 -41.89057,-0.0615 -42.47957,-0.20635 z"
         id="path38634" />
      <path
         style="fill:#505050;fill-opacity:1;stroke-width:0.356971"
         d="m 172.59555,201.36093 c -1.68632,-0.4148 -2.68167,-1.17217 -3.42091,-2.60302 -1.31272,-2.54085 -0.51191,-5.18218 2.02496,-6.67897 1.25507,-0.74051 1.36494,-0.7424 43.09912,-0.7424 h 41.84083 l 1.3284,0.90266 c 3.18028,2.16106 3.21297,5.98308 0.0723,8.45381 l -1.03879,0.8172 -41.41749,0.0571 c -22.77963,0.0314 -41.89942,-0.0615 -42.48842,-0.20635 z"
         id="path38673" />
      <path
         style="fill:#505050;fill-opacity:1;stroke-width:0.356971"
         d="m 172.23858,227.20492 c -0.78534,-0.28462 -1.46704,-0.51991 -1.51489,-0.52287 -0.0479,-0.003 -0.56992,-0.67202 -1.16015,-1.48681 -2.20392,-3.04242 -0.703,-6.80597 3.10084,-7.77535 2.08793,-0.5321 80.94869,-0.5321 83.03662,0 4.84498,1.2347 5.63454,6.87966 1.31702,9.41598 -1.23747,0.72694 -1.60059,0.7339 -42.29987,0.80989 -35.09862,0.0655 -41.25875,0.002 -42.47957,-0.44084 z"
         id="path38712" />
    </g>
    <rect
       style="fill:none;fill-opacity:1;stroke-width:0.452801"
       id="rect39059"
       width="264.58334"
       height="264.58334"
       x="0"
       y="0" />
  </g>
</svg>
