<?xml version="1.0" encoding="UTF-8" standalone="no"?>
<!-- Created with Inkscape (http://www.inkscape.org/) -->

<svg
   width="1000"
   height="1000"
   viewBox="0 0 264.58334 264.58333"
   version="1.1"
   id="svg2254"
   inkscape:version="1.1 (c68e22c387, 2021-05-23)"
   sodipodi:docname="conan_create.svg"
   inkscape:export-filename="E:\projects\conan-guide\resources\icon\light\conan_create.png"
   inkscape:export-xdpi="24.576"
   inkscape:export-ydpi="24.576"
   xmlns:inkscape="http://www.inkscape.org/namespaces/inkscape"
   xmlns:sodipodi="http://sodipodi.sourceforge.net/DTD/sodipodi-0.dtd"
   xmlns="http://www.w3.org/2000/svg"
   xmlns:svg="http://www.w3.org/2000/svg">
  <sodipodi:namedview
     id="namedview2256"
     pagecolor="#ffffff"
     bordercolor="#666666"
     borderopacity="1.0"
     inkscape:pageshadow="2"
     inkscape:pageopacity="0.0"
     inkscape:pagecheckerboard="0"
     inkscape:document-units="mm"
     showgrid="false"
     units="px"
     inkscape:zoom="0.37059484"
     inkscape:cx="12.142641"
     inkscape:cy="632.7665"
     inkscape:window-width="1920"
     inkscape:window-height="1017"
     inkscape:window-x="1912"
     inkscape:window-y="-8"
     inkscape:window-maximized="1"
     inkscape:current-layer="layer1" />
  <defs
     id="defs2251" />
  <g
     inkscape:label="Layer 1"
     inkscape:groupmode="layer"
     id="layer1">
    <rect
       style="fill:none;stroke-width:0.794838"
       id="rect2349"
       width="264.58334"
       height="264.58334"
       x="0"
       y="0"
       rx="995.46381"
       ry="634.64874" />
    <g
       id="g5348"
       transform="matrix(1.0746537,0,0,1.0746537,-102.61486,-11.162379)">
      <path
         style="fill:#505050;fill-opacity:1;stroke-width:0.356971"
         d="m 118.51442,248.04662 c -5.61786,-0.9209 -9.4176,-4.83958 -10.33719,-10.66081 -0.50441,-3.19297 -0.50887,-204.881423 -0.005,-208.114176 0.19907,-1.276171 0.71162,-3.043179 1.139,-3.926682 1.04038,-2.150703 3.55852,-4.542525 5.97646,-5.676671 l 1.97695,-0.927296 52.70783,-0.09272 52.70782,-0.09272 0.97682,1.163637 c 0.53725,0.640001 1.90114,2.207778 3.03086,3.48395 1.12972,1.276172 4.89771,5.613372 8.3733,9.638222 3.47561,4.024849 8.20803,9.486508 10.51651,12.137017 10.18053,11.688897 12.50125,14.358365 15.18927,17.471805 1.57067,1.819256 3.29495,3.812886 3.83174,4.430289 0.97065,1.116436 0.97599,1.152094 0.98167,6.550586 l 0.006,5.428041 -4.67545,3.853209 c -2.5715,2.119264 -5.26217,4.366178 -5.97927,4.993139 l -1.30381,1.139931 -0.10743,-1.751078 -0.10743,-1.751084 -20.77538,-0.116057 c -15.56185,-0.08694 -21.11376,-0.229595 -22.12378,-0.568481 -1.74932,-0.586936 -3.66832,-2.289768 -4.6519,-4.127871 -0.77983,-1.457338 -0.78245,-1.53354 -0.881,-25.64648 l -0.0989,-24.184795 h -41.35038 -41.35038 l -0.94111,0.941107 -0.9411,0.941105 V 133.42512 234.2685 l 0.98167,0.84429 0.98167,0.84428 64.49514,2.6e-4 64.49515,2.7e-4 1.0983,-0.92416 1.09831,-0.92416 v -47.39672 -47.39689 l 5.87664,-4.86764 c 3.23215,-2.67705 5.96692,-4.86749 6.07727,-4.86749 0.11035,0 0.15653,24.61762 0.10263,54.70583 l -0.098,54.70582 -1.0393,2.11961 c -1.94861,3.97409 -4.93286,6.14836 -9.52059,6.9365 -2.90479,0.49902 -133.28906,0.49742 -136.33374,-0.002 z M 253.31624,72.654542 c 0.17258,-0.449749 -2.11834,-3.509648 -4.15038,-5.543492 -0.2945,-0.294761 -1.49909,-1.66039 -2.67687,-3.034728 -1.17778,-1.374339 -2.64054,-3.061028 -3.25057,-3.748199 -0.61004,-0.687168 -2.43722,-2.77545 -4.06039,-4.640625 -1.62319,-1.865172 -3.79536,-4.355047 -4.82707,-5.533051 -3.93806,-4.496496 -6.47991,-7.431183 -7.98232,-9.215956 -1.39473,-1.656866 -3.39921,-3.924673 -7.3147,-8.275632 -0.70673,-0.785336 -1.2887,-1.54836 -1.29326,-1.695611 -0.005,-0.147252 -0.16892,-0.26773 -0.36525,-0.26773 -0.40251,0 -0.52037,41.840203 -0.11899,42.241586 0.13089,0.13089 8.2481,0.237982 18.03825,0.237982 15.32858,0 17.82821,-0.07284 18.00155,-0.524544 z"
         id="path4908" />
      <path
         style="fill:#505050;fill-opacity:1;stroke-width:0.356971"
         d="m 223.5692,149.8276 c -0.62927,-0.82835 -1.51288,-1.90768 -1.96357,-2.39851 -0.75656,-0.82396 -3.47174,-4.08658 -4.45155,-5.34906 -0.23091,-0.29754 -1.55617,-1.89954 -2.94501,-3.56002 -1.38885,-1.66047 -2.52518,-3.1273 -2.52518,-3.25961 0,-0.13231 0.54833,-0.6588 1.2185,-1.16996 0.67018,-0.51117 1.43342,-1.13263 1.69609,-1.38101 0.26268,-0.24839 1.23642,-1.0615 2.16388,-1.8069 0.92745,-0.74541 1.89127,-1.5486 2.14182,-1.78486 0.25056,-0.23626 1.25852,-1.06667 2.23993,-1.84535 0.9814,-0.77868 1.86469,-1.50376 1.96286,-1.61128 0.0982,-0.10752 1.06199,-0.91395 2.14183,-1.79205 1.07983,-0.87811 2.04366,-1.68453 2.14182,-1.79205 0.0982,-0.10753 0.98167,-0.8326 1.96334,-1.61128 0.98168,-0.77868 1.86518,-1.49831 1.96335,-1.59918 0.0982,-0.10086 1.06199,-0.90184 2.14182,-1.77994 1.07984,-0.87811 2.04366,-1.67908 2.14183,-1.77995 0.0982,-0.10087 1.14231,-0.983 2.32031,-1.96029 1.17801,-0.97729 2.22215,-1.86494 2.32031,-1.97256 0.0982,-0.10762 0.90083,-0.75375 1.78368,-1.43585 1.86628,-1.44189 2.77572,-2.16855 3.343,-2.6711 0.22351,-0.19801 1.77179,-1.48009 3.44063,-2.84906 1.66884,-1.36898 3.11458,-2.57238 3.21274,-2.67424 0.22455,-0.23299 6.79677,-5.688214 13.56491,-11.259466 2.84684,-2.343401 5.2564,-4.34658 5.35456,-4.451503 0.0982,-0.104926 1.06199,-0.909225 2.14183,-1.78733 1.07984,-0.878104 2.04366,-1.68453 2.14183,-1.792052 0.0982,-0.107524 0.98145,-0.832598 1.96286,-1.611278 0.98141,-0.778679 1.98937,-1.609087 2.23992,-1.845349 0.25055,-0.236265 1.21459,-1.03945 2.14231,-1.784858 0.92772,-0.745406 1.76708,-1.435603 1.86524,-1.533771 0.0982,-0.09817 1.14231,-0.978088 2.32031,-1.95538 1.17801,-0.977291 2.22215,-1.863097 2.32032,-1.968462 0.0982,-0.105363 1.70453,-1.423035 3.56971,-2.92816 1.86517,-1.505122 3.7125,-3.031546 4.10517,-3.392046 0.39267,-0.360502 1.99904,-1.696415 3.56971,-2.968696 3.32943,-2.696906 3.59367,-2.915439 6.42548,-5.314074 1.17801,-0.997807 2.2457,-1.815621 2.37265,-1.817365 0.12696,-0.0019 0.79298,0.679535 1.48004,1.513956 0.68707,0.83442 2.57202,3.123497 4.18878,5.086837 1.61675,1.963343 3.52093,4.283898 4.2315,5.15679 0.71056,0.872892 1.81695,2.180722 2.45864,2.906287 l 1.16671,1.31921 -1.87518,1.555853 c -1.03134,0.855718 -2.19891,1.823169 -2.59459,2.149893 -3.93733,3.251147 -6.33313,5.234887 -7.68035,6.359413 -2.1232,1.77223 -6.25164,5.188969 -8.41994,6.968422 -3.09904,2.543286 -8.53129,7.100114 -8.71468,7.310289 -0.0982,0.112503 -0.90135,0.761579 -1.78485,1.442392 -0.88351,0.680812 -2.73083,2.182828 -4.10517,3.337818 -4.06366,3.41507 -6.68093,5.59359 -8.36953,6.96649 -0.87289,0.7097 -2.15799,1.78125 -2.85577,2.38121 -0.69778,0.59997 -1.69696,1.40315 -2.22041,1.78486 -1.08193,0.78897 -19.30041,15.88684 -19.57412,16.22131 -0.0982,0.11996 -1.5439,1.30944 -3.21274,2.6433 -1.66884,1.33385 -3.67681,3.01641 -4.46214,3.73901 -0.78534,0.7226 -2.95394,2.53983 -4.81911,4.03828 -1.86518,1.49845 -3.7125,3.02261 -4.10517,3.38702 -0.39267,0.3644 -1.99904,1.70351 -3.56971,2.97579 -3.22425,2.61171 -3.52904,2.86329 -6.22566,5.13886 -1.0681,0.90133 -2.03193,1.63381 -2.14183,1.62774 -0.1099,-0.006 -0.71468,-0.68878 -1.34396,-1.51713 z"
         id="path4947" />
      <path
         style="fill:#505050;fill-opacity:1;stroke-width:0.356971"
         d="m 318.77524,62.588255 c -2.84685,-3.450606 -5.78438,-6.993708 -6.52784,-7.873556 -1.57557,-1.864592 -1.49474,-2.081043 1.28498,-3.441033 8.93525,-4.371607 17.4578,0.990561 15.58686,9.80684 -0.54188,2.553464 -3.85132,7.854812 -4.86817,7.798255 -0.16486,-0.0092 -2.62899,-2.839898 -5.47583,-6.290506 z"
         id="path4986" />
      <path
         style="fill:#505050;fill-opacity:1;stroke-width:0.356971"
         d="m 196.51328,160.05665 c 0.73567,-1.34964 1.4551,-2.61453 1.59873,-2.81086 0.14362,-0.19633 0.74281,-1.24047 1.33152,-2.32031 0.58871,-1.07984 1.49535,-2.72637 2.01475,-3.65896 0.5194,-0.93258 1.36837,-2.45863 1.88661,-3.39122 1.37189,-2.46876 2.60145,-4.64885 3.66368,-6.49597 0.51402,-0.89382 1.16084,-2.06688 1.43739,-2.6068 0.27654,-0.53991 0.6204,-0.98167 0.76414,-0.98167 0.22297,0 2.68121,2.72252 4.6663,5.16797 2.74076,3.37637 6.321,7.66615 7.00805,8.39694 1.8759,1.99531 2.54167,1.63102 -11.7731,6.44181 -7.27581,2.44519 -13.3878,4.50592 -13.5822,4.57939 -0.1944,0.0735 0.24846,-0.97068 0.98413,-2.32032 z"
         id="path5025" />
      <path
         style="fill:#505050;fill-opacity:1;stroke-width:0.356971"
         d="m 129.90625,120.55629 c -1.65798,-1.11731 -2.16968,-2.23184 -1.99304,-4.34098 0.11881,-1.41865 0.36344,-1.95641 1.2505,-2.749 0.60654,-0.54194 1.73948,-1.15679 2.51765,-1.36633 0.97092,-0.26144 13.04389,-0.35095 38.47763,-0.28525 l 37.06276,0.0957 1.29664,0.80634 c 2.89625,1.80108 2.96403,6.00445 0.12658,7.85021 l -1.23472,0.80318 h -38.14813 -38.14813 z"
         id="path5064" />
      <path
         style="fill:#505050;fill-opacity:1;stroke-width:0.356971"
         d="m 131.57595,143.95515 c -4.14883,-0.61594 -5.16468,-6.07002 -1.60057,-8.5935 0.77704,-0.55016 2.87818,-0.61519 23.16524,-0.71691 12.27089,-0.0615 23.16114,-0.009 24.20056,0.1169 1.51331,0.18318 2.13565,0.47456 3.12349,1.46241 1.10414,1.10414 1.23365,1.43724 1.23365,3.17318 0,1.72795 -0.13177,2.07132 -1.20785,3.1474 -0.77934,0.77934 -1.6975,1.28873 -2.58804,1.43585 -1.50682,0.24892 -44.63802,0.22534 -46.32648,-0.0253 z"
         id="path5103" />
      <path
         style="fill:#505050;fill-opacity:1;stroke-width:0.356971"
         d="m 131.90084,167.52643 c -2.66578,-0.66239 -4.10657,-2.34813 -4.10383,-4.80153 0.002,-1.53213 1.09853,-3.32781 2.46395,-4.03389 1.57814,-0.81609 47.35283,-0.83734 48.92814,-0.0227 1.5377,0.79517 2.50922,2.38034 2.50922,4.09414 0,2.01008 -0.77559,3.35876 -2.39383,4.16269 -1.28036,0.63607 -2.59309,0.67573 -24.02204,0.72577 -12.46722,0.0291 -22.98894,-0.0269 -23.38161,-0.12446 z"
         id="path5142" />
      <path
         style="fill:#505050;fill-opacity:1;stroke-width:0.356971"
         d="m 129.90625,195.8772 c -1.45699,-0.98186 -2.10005,-2.15366 -2.10005,-3.82672 0,-1.67306 0.64306,-2.84487 2.10005,-3.82673 l 1.20774,-0.8139 h 55.62608 c 54.02038,0 55.65828,0.0196 56.74134,0.67823 3.13233,1.90489 3.22662,5.98849 0.18171,7.87035 -1.18233,0.73072 -1.33403,0.73267 -56.86731,0.73267 h -55.68182 z"
         id="path5181" />
      <path
         style="fill:#505050;fill-opacity:1;stroke-width:0.356971"
         d="m 131.45109,217.08348 c -1.38095,-0.26524 -3.211,-1.89264 -3.52208,-3.13208 -0.3358,-1.33792 0.0615,-3.49587 0.80741,-4.38557 1.60409,-1.91331 -1.75393,-1.80873 58.03101,-1.80729 54.68823,10e-4 55.45322,0.0109 56.60092,0.71068 1.44274,0.87966 2.5821,2.69192 2.5821,4.1071 0,1.33253 -1.07799,3.14724 -2.37406,3.99653 -0.93589,0.61327 -3.61464,0.64625 -55.97227,0.68912 -30.24414,0.0248 -55.513,-0.0556 -56.15303,-0.17849 z"
         id="path5220" />
    </g>
  </g>
</svg>
