<?xml version="1.0" encoding="UTF-8" standalone="no"?>
<!-- Written by Treer (gitlab.com/Treer) -->

<svg
   version="1.1"
   width="1000"
   height="1000"
   fill="#ffffff"
   id="svg18"
   sodipodi:docname="conan_profile.svg"
   inkscape:version="1.1 (c68e22c387, 2021-05-23)"
   inkscape:export-filename="E:\projects\conan-guide\resources\icon\light\conan_profile.png"
   inkscape:export-xdpi="24.576"
   inkscape:export-ydpi="24.576"
   xmlns:inkscape="http://www.inkscape.org/namespaces/inkscape"
   xmlns:sodipodi="http://sodipodi.sourceforge.net/DTD/sodipodi-0.dtd"
   xmlns="http://www.w3.org/2000/svg"
   xmlns:svg="http://www.w3.org/2000/svg"
   xmlns:rdf="http://www.w3.org/1999/02/22-rdf-syntax-ns#"
   xmlns:cc="http://creativecommons.org/ns#"
   xmlns:dc="http://purl.org/dc/elements/1.1/">
  <sodipodi:namedview
     id="namedview20"
     pagecolor="#ffffff"
     bordercolor="#666666"
     borderopacity="1.0"
     inkscape:pageshadow="2"
     inkscape:pageopacity="0.0"
     inkscape:pagecheckerboard="0"
     showgrid="false"
     inkscape:zoom="0.4902607"
     inkscape:cx="398.76743"
     inkscape:cy="394.68797"
     inkscape:window-width="1920"
     inkscape:window-height="1017"
     inkscape:window-x="1912"
     inkscape:window-y="-8"
     inkscape:window-maximized="1"
     inkscape:current-layer="svg18" />
  <title
     id="title2">Abstract user icon</title>
  <defs
     id="defs10">
    <inkscape:path-effect
       effect="powerclip"
       id="path-effect1369"
       is_visible="true"
       lpeversion="1"
       inverse="true"
       flatten="false"
       hide_clip="false"
       message="Use fill-rule evenodd on &lt;b&gt;fill and stroke&lt;/b&gt; dialog if no flatten result after convert clip to paths." />
    <clipPath
       id="circular-border">
      <circle
         cx="300"
         cy="300"
         r="280"
         id="circle4" />
    </clipPath>
    <clipPath
       id="avoid-antialiasing-bugs">
      <rect
         width="100%"
         height="498"
         id="rect7"
         x="0"
         y="0" />
    </clipPath>
    <clipPath
       clipPathUnits="userSpaceOnUse"
       id="clipPath1365">
      <circle
         style="display:none;fill:#ff0000;fill-opacity:1;stroke-width:1.70627"
         id="circle1367"
         cx="-453.79953"
         cy="431.44376"
         r="425"
         d="m -28.79953,431.44376 a 425,425 0 0 1 -425,425 425,425 0 0 1 -425,-425 425,425 0 0 1 425,-425.0000039 425,425 0 0 1 425,425.0000039 z" />
      <path
         id="lpe_path-effect1369"
         style="fill:#ff0000;fill-opacity:1;stroke-width:1.70627"
         class="powerclip"
         d="m -918.79953,-33.556244 h 930 V 896.44376 h -930 z m 890,465.000004 a 425,425 0 0 0 -425,-425.0000039 425,425 0 0 0 -425,425.0000039 425,425 0 0 0 425,425 425,425 0 0 0 425,-425 z" />
    </clipPath>
  </defs>
  <metadata
     id="metadata837">
    <rdf:RDF>
      <cc:Work
         rdf:about="">
        <dc:title>Abstract user icon</dc:title>
      </cc:Work>
    </rdf:RDF>
  </metadata>
  <rect
     style="fill:none;stroke-width:1.26878"
     id="rect931"
     width="1000"
     height="1000"
     x="0"
     y="0" />
  <g
     id="g1391"
     transform="translate(-19.836957,-19.83695)">
    <g
       id="g1384"
       transform="translate(635.27888,366.03435)">
      <circle
         cx="300"
         cy="300"
         r="280"
         fill="#000000"
         clip-path="url(#avoid-antialiasing-bugs)"
         id="circle12"
         transform="matrix(1.5178571,0,0,1.5178571,-570.79905,-301.55453)"
         style="fill:#505050;fill-opacity:1" />
      <circle
         cx="-115.44191"
         cy="47.552608"
         r="174.55356"
         id="circle14"
         style="stroke-width:1.51785" />
      <circle
         cx="300"
         cy="550"
         r="205"
         clip-path="url(#circular-border)"
         id="circle16"
         transform="matrix(1.5178571,0,0,1.5178571,-570.79905,-301.55453)" />
    </g>
    <path
       style="fill:#505050;fill-opacity:1;stroke-width:1.53352"
       id="path1135"
       clip-path="url(#clipPath1365)"
       inkscape:path-effect="#path-effect1369"
       sodipodi:type="arc"
       sodipodi:cx="-453.79953"
       sodipodi:cy="431.44376"
       sodipodi:rx="460"
       sodipodi:ry="460"
       d="m 6.20047,431.44376 a 460,460 0 0 1 -460,460 460,460 0 0 1 -460,-460 460,460 0 0 1 460,-460.000004 460,460 0 0 1 460,460.000004 z"
       transform="matrix(1.0326087,0,0,1.0326087,988.4343,74.324374)" />
  </g>
</svg>
