<?xml version="1.0" encoding="UTF-8" standalone="no"?>
<!-- Created with Inkscape (http://www.inkscape.org/) -->

<svg
   width="1000"
   height="1000"
   viewBox="0 0 264.58333 264.58334"
   version="1.1"
   id="svg10364"
   inkscape:version="1.1 (c68e22c387, 2021-05-23)"
   sodipodi:docname="conan_install.svg"
   inkscape:export-filename="E:\projects\conan-guide\resources\icon\light\conan_install.png"
   inkscape:export-xdpi="24.576"
   inkscape:export-ydpi="24.576"
   xmlns:inkscape="http://www.inkscape.org/namespaces/inkscape"
   xmlns:sodipodi="http://sodipodi.sourceforge.net/DTD/sodipodi-0.dtd"
   xmlns="http://www.w3.org/2000/svg"
   xmlns:svg="http://www.w3.org/2000/svg">
  <sodipodi:namedview
     id="namedview10366"
     pagecolor="#ffffff"
     bordercolor="#666666"
     borderopacity="1.0"
     inkscape:pageshadow="2"
     inkscape:pageopacity="0.0"
     inkscape:pagecheckerboard="0"
     inkscape:document-units="mm"
     showgrid="false"
     units="px"
     inkscape:zoom="0.37059484"
     inkscape:cx="14.841005"
     inkscape:cy="373.7235"
     inkscape:window-width="1920"
     inkscape:window-height="1017"
     inkscape:window-x="-8"
     inkscape:window-y="-8"
     inkscape:window-maximized="1"
     inkscape:current-layer="layer1" />
  <defs
     id="defs10361" />
  <g
     inkscape:label="Layer 1"
     inkscape:groupmode="layer"
     id="layer1">
    <g
       id="g35908"
       transform="matrix(1.1505951,0,0,1.1505951,-100.14982,21.175341)">
      <path
         style="fill:#505050;fill-opacity:1;stroke-width:0.356971"
         d="m 119.04988,207.0401 c -8.05734,-1.80518 -14.40065,-5.80251 -19.294783,-12.1589 -2.749856,-3.57146 -4.288474,-6.7378 -5.972295,-12.29046 L 93.025051,180.09195 92.907826,98.256309 92.7906,16.420673 h 12.80299 12.803 l 0.2374,36.470162 c 0.13057,20.058589 0.2374,54.105795 0.2374,75.660465 0,42.25225 -0.0518,41.02004 1.87598,44.63368 1.9553,3.66523 5.70994,6.65102 9.85391,7.83609 2.28737,0.65413 4.64116,0.67725 68.9587,0.67725 72.89738,0 68.54031,0.12391 72.58499,-2.06434 2.7044,-1.46313 5.28189,-4.17959 6.67832,-7.03843 l 1.22058,-2.4988 0.0927,-52.564 0.0927,-52.564001 h 13.39807 13.39807 l -0.12606,57.561601 c -0.12559,57.35138 -0.1288,57.57072 -0.87917,60.06039 -2.08239,6.90919 -4.28195,10.82751 -8.59289,15.30739 -4.5653,4.74421 -9.99893,7.6792 -16.99147,9.17797 -3.07471,0.65904 -5.69484,0.67986 -80.85397,0.64246 -73.29447,-0.0365 -77.83738,-0.0747 -80.53205,-0.67846 z"
         id="path13009" />
      <path
         style="fill:#505050;fill-opacity:1;stroke-width:0.356971"
         d="M 128.86659,60.328124 V 40.69471 h 19.8119 19.81189 v 19.633414 19.633414 h -19.81189 -19.8119 z"
         id="path13048" />
      <path
         style="fill:#505050;fill-opacity:1;stroke-width:0.356971"
         d="M 128.86659,107.09134 V 87.457933 h 19.8119 19.81189 v 19.633407 19.63342 h -19.81189 -19.8119 z"
         id="path13087" />
      <path
         style="fill:#505050;fill-opacity:1;stroke-width:0.713941"
         d="M 128.86659,152.42668 V 133.15024 H 148.5 168.13341 v 19.27644 19.27644 H 148.5 128.86659 Z"
         id="path33090" />
      <path
         style="fill:#505050;fill-opacity:1;stroke-width:0.713941"
         d="m 180.98437,152.42668 v -19.27644 h 19.63342 19.63341 v 19.27644 19.27644 h -19.63341 -19.63342 z"
         id="path33129" />
      <path
         style="fill:#505050;fill-opacity:1;stroke-width:0.713941"
         d="m 232.38822,152.42668 v -19.27644 h 19.63341 19.63342 v 19.27644 19.27644 h -19.63342 -19.63341 z"
         id="path33168" />
      <path
         style="fill:#505050;fill-opacity:1;stroke-width:0.713941"
         d="M 232.38822,107.80529 V 88.171874 h 19.63341 19.63342 v 19.633416 19.63341 h -19.63342 -19.63341 z"
         id="path33207" />
      <path
         style="fill:#1e1e1e;fill-opacity:1;stroke-width:0.713941"
         d="m 196.65,107.75272 c -0.78215,-2.00394 -7.31619,-20.129147 -13.97841,-38.77565 -1.73767,-4.863446 -3.00479,-8.997243 -2.81582,-9.186209 0.18897,-0.188965 3.38611,0.01527 7.10477,0.453819 8.79181,1.03687 9.01662,1.024655 9.01662,-0.489781 0,-1.958557 5.30255,-12.502253 9.61382,-19.11633 18.48604,-28.360098 49.66469,-47.7935866 86.41142,-53.8598 12.08735,-1.9954 13.39639,-1.915369 16.59342,1.014483 2.25094,2.062839 2.65057,2.8806588 2.65057,5.4242963 0,2.5436372 -0.39963,3.3614566 -2.65057,5.4242959 -1.87813,1.72117645 -3.32983,2.4304487 -4.98137,2.4338036 -5.38026,0.01093 -20.94977,3.2284871 -29.46061,6.0882606 -26.70127,8.9720436 -49.22224,27.8196106 -60.45139,50.5911406 -1.26633,2.567964 -2.14634,4.8251 -1.95559,5.015852 0.19075,0.190748 3.38704,0.710615 7.10287,1.155242 3.71582,0.444629 6.99556,1.036381 7.28831,1.314997 0.41222,0.392319 -18.88725,30.534719 -27.21916,42.51158 l -1.45343,2.08926 z"
         id="path35781" />
    </g>
    <rect
       style="fill:none;fill-opacity:1;stroke-width:0.378524"
       id="rect36012"
       width="264.58334"
       height="264.58334"
       x="0"
       y="0" />
  </g>
</svg>
