<?xml version="1.0" encoding="UTF-8" standalone="no"?>
<!-- Generator: Adobe Illustrator 19.0.0, SVG Export Plug-In . SVG Version: 6.00 Build 0)  -->

<svg
   version="1.1"
   id="Layer_1"
   x="0px"
   y="0px"
   viewBox="0 0 1000 1000"
   xml:space="preserve"
   sodipodi:docname="open_folder.svg"
   width="1000"
   height="1000"
   inkscape:version="1.1 (c68e22c387, 2021-05-23)"
   inkscape:export-filename="E:\projects\conan-guide\resources\icon\open_folder.png"
   inkscape:export-xdpi="24.6"
   inkscape:export-ydpi="24.6"
   xmlns:inkscape="http://www.inkscape.org/namespaces/inkscape"
   xmlns:sodipodi="http://sodipodi.sourceforge.net/DTD/sodipodi-0.dtd"
   xmlns="http://www.w3.org/2000/svg"
   xmlns:svg="http://www.w3.org/2000/svg"><defs
   id="defs7" /><sodipodi:namedview
   id="namedview5"
   pagecolor="#ffffff"
   bordercolor="#666666"
   borderopacity="1.0"
   inkscape:pageshadow="2"
   inkscape:pageopacity="0.0"
   inkscape:pagecheckerboard="0"
   showgrid="false"
   inkscape:zoom="0.57452426"
   inkscape:cx="448.19691"
   inkscape:cy="225.40388"
   inkscape:window-width="1920"
   inkscape:window-height="1017"
   inkscape:window-x="1912"
   inkscape:window-y="-8"
   inkscape:window-maximized="1"
   inkscape:current-layer="Layer_1"
   showguides="true"
   inkscape:guide-bbox="true" />

<path
   id="path1435"
   style="fill:none;fill-opacity:1;stroke:none;stroke-width:2.46344"
   d="m 613.24872,4e-5 v 55.429 55.429 H 713.6268 814.00489 L 539.95541,384.93031 265.90396,659.00257 303.4634,696.5638 c 20.65776,20.65872 38.11599,37.56123 38.79672,37.56123 0.68071,0 124.56374,-123.32711 275.29456,-274.06052 L 891.61003,186.00202 V 287.61827 389.23452 H 945.80501 1000 V 194.61631 4e-5 H 806.62435 Z" /><path
   style="fill:none;fill-opacity:1;stroke:none;stroke-width:2.46344"
   d="M 86.90912,996.67825 C 42.31621,985.86305 8.3849297,947.65255 2.3966897,901.50775 -0.78677825,876.97629 -0.80462825,123.44216 2.3776897,98.54023 8.8384097,47.98411 47.76099,9.12203 98.53492,2.53244 108.91724,1.18499 199.98164,0.11916 308.40375,0.0761 L 499.93216,0 V 55.42885 110.8577 H 304.08517 108.23826 l 0.62344,389.84962 0.62346,389.84961 391.0628,0.62347 391.06282,0.62344 V 697.17945 502.55499 h 54.19453 54.1945 l -0.036,197.69625 c -0.04,215.63051 -0.031,215.48611 -14.1933,241.72521 -8.5831,15.9025 -28.0722,35.3926 -43.9739,43.976 -27.4686,14.82705 -6.7688,14.17385 -443.09577,13.9845 -310.78387,-0.1347 -401.88339,-0.8557 -411.79131,-3.2587 z"
   id="path1627" /><path
   style="fill:none;fill-opacity:1;stroke:none;stroke-width:2.46344"
   d="M 86.90912,996.67825 C 42.31621,985.86305 8.3849297,947.65255 2.3966897,901.50775 -0.78677825,876.97629 -0.80462825,123.44216 2.3776897,98.54023 8.8384097,47.98411 47.76099,9.12203 98.53492,2.53244 108.91724,1.18499 199.98164,0.11916 308.40375,0.0761 L 499.93216,0 V 55.42885 110.8577 H 304.08517 108.23826 l 0.62344,389.84962 0.62346,389.84961 391.0628,0.62347 391.06282,0.62344 V 697.17945 502.55499 h 54.19453 54.1945 l -0.036,197.69625 c -0.04,215.63051 -0.031,215.48611 -14.1933,241.72521 -8.5831,15.9025 -28.0722,35.3926 -43.9739,43.976 -27.4686,14.82705 -6.7688,14.17385 -443.09577,13.9845 -310.78387,-0.1347 -401.88339,-0.8557 -411.79131,-3.2587 z"
   id="path1703" /><path
   style="fill:none;fill-opacity:1;stroke:none;stroke-width:2.46344"
   d="M 86.90912,996.67825 C 42.31621,985.86305 8.3849297,947.65255 2.3966897,901.50775 -0.78677825,876.97629 -0.80462825,123.44216 2.3776897,98.54023 8.8384097,47.98411 47.76099,9.12203 98.53492,2.53244 108.91724,1.18499 199.98164,0.11916 308.40375,0.0761 L 499.93216,0 V 55.42885 110.8577 H 304.08517 108.23826 l 0.62344,389.84962 0.62346,389.84961 391.0628,0.62347 391.06282,0.62344 V 697.17945 502.55499 h 54.19453 54.1945 l -0.036,197.69625 c -0.04,215.63051 -0.031,215.48611 -14.1933,241.72521 -8.5831,15.9025 -28.0722,35.3926 -43.9739,43.976 -27.4686,14.82705 -6.7688,14.17385 -443.09577,13.9845 -310.78387,-0.1347 -401.88339,-0.8557 -411.79131,-3.2587 z"
   id="path1742" /><path
   style="fill:none;fill-opacity:1;stroke:none;stroke-width:2.46344"
   d="M 86.90912,996.67825 C 42.31621,985.86305 8.3849297,947.65255 2.3966897,901.50775 -0.78677825,876.97629 -0.80462825,123.44216 2.3776897,98.54023 8.8384097,47.98411 47.76099,9.12203 98.53492,2.53244 108.91724,1.18499 199.98164,0.11916 308.40375,0.0761 L 499.93216,0 V 55.42885 110.8577 H 304.08517 108.23826 l 0.62344,389.84962 0.62346,389.84961 391.0628,0.62347 391.06282,0.62344 V 697.17945 502.55499 h 54.19453 54.1945 l -0.036,197.69625 c -0.04,215.63051 -0.031,215.48611 -14.1933,241.72521 -8.5831,15.9025 -28.0722,35.3926 -43.9739,43.976 -27.4686,14.82705 -6.7688,14.17385 -443.09577,13.9845 -310.78387,-0.1347 -401.88339,-0.8557 -411.79131,-3.2587 z"
   id="path1781" /><path
   style="fill:none;fill-opacity:1;stroke:none;stroke-width:2.46344"
   d="M 86.90912,996.67825 C 42.31621,985.86305 8.3849297,947.65255 2.3966897,901.50775 -0.78677825,876.97629 -0.80462825,123.44216 2.3776897,98.54023 8.8384097,47.98411 47.76099,9.12203 98.53492,2.53244 108.91724,1.18499 199.98164,0.11916 308.40375,0.0761 L 499.93216,0 V 55.42885 110.8577 H 304.08517 108.23826 l 0.62344,389.84962 0.62346,389.84961 391.0628,0.62347 391.06282,0.62344 V 697.17945 502.55499 h 54.19453 54.1945 l -0.036,197.69625 c -0.04,215.63051 -0.031,215.48611 -14.1933,241.72521 -8.5831,15.9025 -28.0722,35.3926 -43.9739,43.976 -27.4686,14.82705 -6.7688,14.17385 -443.09577,13.9845 -310.78387,-0.1347 -401.88339,-0.8557 -411.79131,-3.2587 z"
   id="path1820" /><path
   style="fill:none;fill-opacity:1;stroke:none;stroke-width:2.46344"
   d="M 86.90912,996.67825 C 42.31621,985.86305 8.3849297,947.65255 2.3966897,901.50775 -0.78677825,876.97629 -0.80462825,123.44216 2.3776897,98.54023 8.8384097,47.98411 47.76099,9.12203 98.53492,2.53244 108.91724,1.18499 199.98164,0.11916 308.40375,0.0761 L 499.93216,0 V 55.42885 110.8577 H 304.08517 108.23826 l 0.62344,389.84962 0.62346,389.84961 391.0628,0.62347 391.06282,0.62344 V 697.17945 502.55499 h 54.19453 54.1945 l -0.036,197.69625 c -0.04,215.63051 -0.031,215.48611 -14.1933,241.72521 -8.5831,15.9025 -28.0722,35.3926 -43.9739,43.976 -27.4686,14.82705 -6.7688,14.17385 -443.09577,13.9845 -310.78387,-0.1347 -401.88339,-0.8557 -411.79131,-3.2587 z"
   id="path1859" /><path
   style="fill:none;fill-opacity:1;stroke:none;stroke-width:2.46344"
   d="M 86.90912,996.67825 C 42.31621,985.86305 8.3849297,947.65255 2.3966897,901.50775 -0.78677825,876.97629 -0.80462825,123.44216 2.3776897,98.54023 8.8384097,47.98411 47.76099,9.12203 98.53492,2.53244 108.91724,1.18499 199.98164,0.11916 308.40375,0.0761 L 499.93216,0 V 55.42885 110.8577 H 304.08517 108.23826 l 0.62344,389.84962 0.62346,389.84961 391.0628,0.62347 391.06282,0.62344 V 697.17945 502.55499 h 54.19453 54.1945 l -0.036,197.69625 c -0.04,215.63051 -0.031,215.48611 -14.1933,241.72521 -8.5831,15.9025 -28.0722,35.3926 -43.9739,43.976 -27.4686,14.82705 -6.7688,14.17385 -443.09577,13.9845 -310.78387,-0.1347 -401.88339,-0.8557 -411.79131,-3.2587 z"
   id="path1898" /><path
   style="fill:#505050;fill-opacity:1;stroke:none;stroke-width:2.46344"
   d="M 86.90912,996.67825 C 42.31621,985.86305 8.3849297,947.65255 2.3966897,901.50775 -0.78677825,876.97629 -0.80462825,123.44216 2.3776897,98.54023 8.8384097,47.98411 47.76099,9.12203 98.53492,2.53244 108.91724,1.18499 199.98164,0.11916 308.40375,0.0761 L 499.93216,0 V 55.42885 110.8577 H 304.08517 108.23826 l 0.62344,389.84962 0.62346,389.84961 391.0628,0.62347 391.06282,0.62344 V 697.17945 502.55499 h 54.19453 54.1945 l -0.036,197.69625 c -0.04,215.63051 -0.031,215.48611 -14.1933,241.72521 -8.5831,15.9025 -28.0722,35.3926 -43.9739,43.976 -27.4686,14.82705 -6.7688,14.17385 -443.09577,13.9845 -310.78387,-0.1347 -401.88339,-0.8557 -411.79131,-3.2587 z"
   id="path1937" /><path
   style="fill:#505050;fill-opacity:1;stroke:none;stroke-width:2.46344"
   d="M 304.69524,695.33153 268.36755,659.0021 542.4185,384.92994 816.46936,110.85775 H 714.85883 613.24817 V 55.42889 4e-5 H 806.62409 1000 V 194.61691 389.23378 H 945.8056 891.61102 V 286.38659 183.53942 L 617.55503,457.60017 C 466.82416,608.3336 342.94184,731.66093 342.26095,731.66093 c -0.68092,0 -17.58548,-16.34825 -37.56571,-36.3294 z"
   id="path2124" /></svg>
