<?xml version="1.0" encoding="UTF-8" standalone="no"?>
<!-- Created with Inkscape (http://www.inkscape.org/) -->

<svg
   width="1000"
   height="1000"
   viewBox="0 0 264.58333 264.58334"
   version="1.1"
   id="svg5"
   inkscape:version="1.1 (c68e22c387, 2021-05-23)"
   sodipodi:docname="refresh.svg"
   inkscape:export-filename="E:\projects\conan-guide\resources\icon\light\refresh.png"
   inkscape:export-xdpi="24.6"
   inkscape:export-ydpi="24.6"
   xmlns:inkscape="http://www.inkscape.org/namespaces/inkscape"
   xmlns:sodipodi="http://sodipodi.sourceforge.net/DTD/sodipodi-0.dtd"
   xmlns="http://www.w3.org/2000/svg"
   xmlns:svg="http://www.w3.org/2000/svg">
  <sodipodi:namedview
     id="namedview7"
     pagecolor="#ffffff"
     bordercolor="#666666"
     borderopacity="1.0"
     inkscape:pageshadow="2"
     inkscape:pageopacity="0.0"
     inkscape:pagecheckerboard="0"
     inkscape:document-units="mm"
     showgrid="false"
     units="px"
     inkscape:zoom="0.37059484"
     inkscape:cx="-214.51999"
     inkscape:cy="365.6284"
     inkscape:window-width="1920"
     inkscape:window-height="1017"
     inkscape:window-x="-8"
     inkscape:window-y="-8"
     inkscape:window-maximized="1"
     inkscape:current-layer="layer1" />
  <defs
     id="defs2" />
  <g
     inkscape:label="Layer 1"
     inkscape:groupmode="layer"
     id="layer1">
    <g
       id="g3958"
       transform="matrix(1.5592022,0,0,1.5592022,-62.489261,-51.383102)">
      <path
         style="fill:#505050;fill-opacity:1;stroke:#505050;stroke-width:1.34918"
         d="m 745.43163,562.14276 c -2.96357,-1.59869 -5.69566,-3.21607 -6.07132,-3.59419 -0.37564,-0.37814 -3.11152,-1.89597 -6.07972,-3.37296 -2.9682,-1.477 -5.7003,-3.03424 -6.07132,-3.46054 -1.23337,-1.41712 -24.51803,-14.74051 -25.76129,-14.74051 -1.75067,0 -1.56113,-0.94526 2.29948,-11.46805 1.90572,-5.19435 3.92779,-11.56924 4.49349,-14.16641 0.56571,-2.59718 1.70164,-7.15067 2.52429,-10.11887 4.36109,-15.7352 5.7447,-29.22069 5.7447,-55.99107 0,-35.67821 -3.22163,-54.03117 -15.6309,-89.04603 -2.70905,-7.64405 -15.58518,-33.83508 -17.74694,-36.09861 -0.89004,-0.93196 -2.00252,-2.90514 -2.47216,-4.38485 -0.46964,-1.4797 -1.42011,-2.69037 -2.11216,-2.69037 -0.69203,0 -1.25826,-0.64741 -1.25826,-1.43868 0,-3.12485 -19.11183,-26.94685 -31.79106,-39.6261 -12.67926,-12.67924 -36.50126,-31.79107 -39.62611,-31.79107 -0.79127,0 -1.43867,-0.56622 -1.43867,-1.25826 0,-0.69205 -1.21068,-1.64252 -2.69038,-2.11216 -1.4797,-0.46964 -3.45288,-1.58326 -4.38484,-2.47471 -2.30485,-2.20467 -28.57861,-15.13905 -36.09862,-17.77108 -35.80894,-12.53327 -53.55313,-15.64736 -89.09194,-15.63555 -26.60619,0.009 -40.2007,1.41239 -55.94516,5.77604 -2.9682,0.82265 -7.52169,1.95978 -10.11886,2.52695 -14.53785,3.1748 -51.05553,18.81243 -52.23409,22.36772 -0.28038,0.84581 14.69682,16.76144 33.28265,35.3681 18.58585,18.60664 33.79244,34.1554 33.79244,34.5528 0,0.3974 -39.16001,0.72254 -87.02226,0.72254 h -87.02226 v -87.02226 c 0,-47.86224 0.3388,-87.02226 0.75289,-87.02226 0.41409,0 14.39825,13.6558 31.0759,30.34621 l 30.32301,30.34621 6.36391,-3.45712 c 3.50015,-1.90141 8.18531,-4.59364 10.41146,-5.98273 10.71974,-6.68896 39.96174,-19.42397 52.61811,-22.91539 2.22615,-0.61411 5.86894,-1.74141 8.09509,-2.5051 12.78349,-4.38543 35.59534,-9.03034 54.64189,-11.12606 80.74261,-8.88428 164.71673,17.45493 228.01181,71.51787 34.96632,29.86618 63.34574,68.22235 82.44713,111.43132 10.22384,23.12721 19.51511,58.91728 22.94163,88.37144 4.21504,36.23232 -0.50879,85.70389 -11.14362,116.70427 -0.76369,2.22615 -1.89098,5.86894 -2.50509,8.09509 -1.40571,5.0957 -7.56732,21.57678 -9.02195,24.13195 -0.91379,1.60511 -1.97432,1.44352 -6.4809,-0.98752 z"
         id="path3798"
         transform="scale(0.26458333)" />
      <path
         style="fill:#505050;fill-opacity:1;stroke:#505050;stroke-width:1.34918"
         d="m 665.69847,731.94179 -30.32301,-30.34621 -6.75738,3.69986 c -3.71657,2.03493 -10.22312,5.66038 -14.45901,8.05655 -4.23589,2.39618 -8.61232,4.74992 -9.72539,5.23054 -1.11308,0.48062 -5.363,2.41536 -9.44428,4.29941 -9.03081,4.16891 -35.32536,13.62485 -41.82465,15.04081 -2.59718,0.56583 -7.15067,1.6967 -10.11887,2.51306 -48.31631,13.28861 -107.24807,11.38377 -160.55269,-5.18952 -16.88422,-5.24957 -26.99342,-9.19365 -41.82466,-16.31775 -17.56539,-8.43744 -51.61795,-29.92322 -57.34024,-36.17935 -0.37103,-0.40565 -3.71026,-3.1658 -7.42051,-6.13368 -8.68062,-6.94377 -28.13555,-26.39869 -35.07931,-35.07932 -2.96789,-3.71025 -5.72804,-7.04948 -6.13368,-7.4205 -3.25937,-2.98124 -15.13713,-20.16769 -22.58376,-32.67743 -14.53623,-24.4197 -21.97323,-40.94968 -29.91335,-66.48747 -21.00979,-67.57372 -18.42896,-133.48355 7.91319,-202.08888 l 1.44336,-3.75908 7.77263,4.26932 c 4.27494,2.34813 8.73113,5.10219 9.90263,6.12015 1.17151,1.01795 2.50712,1.85083 2.96803,1.85083 0.46091,0 3.53681,1.82139 6.83534,4.04754 3.29853,2.22615 6.66819,4.04755 7.48814,4.04755 0.81994,0 1.49293,0.45535 1.49553,1.01189 0.003,0.55653 3.25695,2.76607 7.2319,4.91008 l 7.22718,3.8982 -1.74528,5.54608 c -0.9599,3.05034 -2.35725,7.36747 -3.10521,9.59362 -7.07918,21.06952 -9.61331,39.74131 -9.61331,70.83207 0,36.20299 3.09434,53.93761 15.53677,89.04604 2.70905,7.64404 15.58518,33.83507 17.74694,36.09861 0.89004,0.93196 2.00252,2.90514 2.47216,4.38484 0.46964,1.47971 1.42011,2.69038 2.11215,2.69038 0.69205,0 1.25827,0.64741 1.25827,1.43867 0,3.12486 19.11183,26.94686 31.79107,39.62611 12.67925,12.67924 36.50124,31.79107 39.6261,31.79107 0.79127,0 1.43867,0.56622 1.43867,1.25826 0,0.69205 1.21068,1.64252 2.69038,2.11215 1.4797,0.46964 3.45288,1.58212 4.38484,2.47217 4.67658,4.46629 39.54927,19.79688 54.31258,23.87669 29.02009,8.01962 39.93941,9.48572 70.7628,9.50108 26.79538,0.0135 40.26516,-1.36693 56.06034,-5.74463 2.9682,-0.82265 7.52169,-1.96496 10.11886,-2.53846 4.69583,-1.03694 14.40992,-4.29581 19.56315,-6.56302 1.4841,-0.65295 5.43046,-2.21005 8.76968,-3.46025 8.53145,-3.19412 20.57204,-9.10618 22.73279,-11.16204 2.37705,-2.26165 4.26529,-0.12763 -33.86354,-38.2712 -17.6237,-17.63052 -32.04308,-32.3902 -32.04308,-32.79931 0,-0.40911 39.16001,-0.74383 87.02226,-0.74383 h 87.02226 v 87.02226 c 0,47.86224 -0.33881,87.02226 -0.75289,87.02226 -0.41409,0 -14.39824,-13.65579 -31.0759,-30.34622 z"
         id="path3837"
         transform="scale(0.26458333)" />
    </g>
    <rect
       style="fill:none;fill-opacity:1;stroke:none;stroke-width:1.32036"
       id="rect4062"
       width="263.26297"
       height="263.26297"
       x="0.66017997"
       y="0.66017997" />
  </g>
</svg>
