<?xml version="1.0" encoding="UTF-8" standalone="no"?>
<svg
   width="1000"
   height="1000"
   stroke="#000000"
   fill="none"
   version="1.1"
   id="svg6"
   sodipodi:docname="remote.svg"
   inkscape:version="1.1 (c68e22c387, 2021-05-23)"
   xmlns:inkscape="http://www.inkscape.org/namespaces/inkscape"
   xmlns:sodipodi="http://sodipodi.sourceforge.net/DTD/sodipodi-0.dtd"
   xmlns="http://www.w3.org/2000/svg"
   xmlns:svg="http://www.w3.org/2000/svg">
  <defs
     id="defs10" />
  <sodipodi:namedview
     id="namedview8"
     pagecolor="#ffffff"
     bordercolor="#666666"
     borderopacity="1.0"
     inkscape:pageshadow="2"
     inkscape:pageopacity="0.0"
     inkscape:pagecheckerboard="0"
     showgrid="false"
     inkscape:zoom="0.17509311"
     inkscape:cx="-928.07765"
     inkscape:cy="1299.3087"
     inkscape:window-width="1920"
     inkscape:window-height="1017"
     inkscape:window-x="1912"
     inkscape:window-y="-8"
     inkscape:window-maximized="1"
     inkscape:current-layer="svg6" />
  <path
     style="fill:#505050;stroke-width:1.42781"
     d="m 465.16989,948.48337 c -2.74854,-0.3142 -11.10124,-1.2572 -18.56155,-2.0955 -34.29392,-3.8534 -76.62528,-14.5827 -110.65542,-28.0465 C 125.81715,835.2025 9.582468,609.30717 64.635818,391.05245 84.141561,313.72346 122.16232,245.64756 178.17972,187.75291 262.54312,100.56234 378.86745,51.243 500.15128,51.243 c 143.91488,0 278.45718,68.67761 363.60968,185.60577 46.4596,63.79658 74.9434,138.40608 83.4,218.45521 3.0823,29.17646 2.1099,80.76294 -2.0328,107.84476 -13.1748,86.12692 -47.115,161.96197 -101.2648,226.26319 -13.4077,15.92123 -45.0284,47.10682 -60.309,59.47904 -53.8425,43.5948 -118.0469,74.751 -184.8391,89.6961 -33.86285,7.5769 -51.60511,9.5196 -91.42492,10.0102 -20.41771,0.2516 -39.37191,0.2003 -42.12045,-0.1139 z M 480.87582,782.80309 V 671.96397 l -16.06288,1.01064 c -27.8443,1.75188 -60.55761,6.59098 -88.16738,13.0421 -18.44763,4.31035 -40.30449,10.55383 -41.81735,11.94525 -1.285,1.18184 11.58455,30.3016 21.44153,48.51551 25.44716,47.02167 54.70029,86.04552 93.46032,124.6767 19.10279,19.0392 23.22119,22.488 26.85441,22.488 h 4.29135 z m 69.76866,88.35108 c 38.30148,-38.07957 64.89448,-73.13606 90.55668,-119.37696 11.8926,-21.42927 25.8662,-52.33173 24.3243,-53.79265 -2.9844,-2.82764 -47.5648,-13.97318 -73.9942,-18.49929 -17.20785,-2.94687 -56.38686,-7.15391 -66.6226,-7.15391 h -5.48192 v 110.65542 110.65539 h 4.29934 c 3.64116,0 7.76198,-3.4426 26.9184,-22.488 z m -149.76304,2.8556 c -36.64841,-39.87988 -72.3998,-94.8447 -94.96039,-145.99375 -3.63694,-8.24561 -7.07905,-15.47926 -7.64912,-16.07479 -2.95344,-3.08524 -89.64381,40.9597 -93.77529,47.64458 -1.25328,2.02784 25.72469,29.24166 44.16364,44.54971 41.34308,34.32316 91.22625,60.84575 141.5098,75.23995 20.73355,5.9352 20.98211,5.8107 10.71136,-5.3657 z m 210.88192,4.7759 c 47.831,-13.76744 96.5468,-39.33632 136.8272,-71.81475 16.4299,-13.2476 48.1232,-44.5011 47.4018,-46.74392 -1.9382,-6.02524 -90.7397,-51.72963 -93.8865,-48.32153 -0.568,0.6152 -3.1157,5.93739 -5.6615,11.82712 -22.2476,51.46943 -57.9314,107.23516 -94.2648,147.31478 -5.4639,6.0273 -9.9344,11.3281 -9.9344,11.7794 0,1.4049 2.1291,0.9641 19.5182,-4.0411 z M 226.01142,703.32656 c 10.99415,-5.94789 28.34206,-14.44137 38.55092,-18.87439 10.20885,-4.43302 19.05059,-8.5311 19.64828,-9.10684 0.59772,-0.57573 -0.20603,-4.80428 -1.78607,-9.39678 -11.71496,-34.0501 -24.2328,-105.31076 -24.27362,-138.18313 l -0.0138,-11.06554 h -75.67402 -75.67402 v 7.19533 c 0,23.95628 8.37352,67.93159 19.10431,100.33022 11.72261,35.3932 24.49902,61.9791 44.55189,92.70618 l 9.0728,13.90227 13.25196,-8.34649 c 7.28857,-4.59057 22.24717,-13.21295 33.24132,-19.16083 z m 605.50424,11.18565 c 36.3653,-55.30175 57.1019,-118.49797 62.4483,-190.31632 l 0.5581,-7.49601 h -75.286 -75.2859 l -0.8924,4.46191 c -0.4908,2.45405 -0.8924,8.08 -0.8924,12.50211 0,9.49285 -3.3698,39.5568 -6.5807,58.71001 -3.9945,23.82782 -10.4158,50.47768 -18.3414,76.12104 l -2.1239,6.87217 5.3131,2.20848 c 28.1852,11.71566 62.6341,29.45293 85.3264,43.9334 7.8222,4.99154 14.3971,9.14014 14.6107,9.21909 0.2136,0.079 5.2293,-7.21818 11.1461,-16.21588 z M 341.29785,656.64614 c 37.82469,-10.90644 86.44886,-19.32029 121.37337,-21.00226 l 18.2046,-0.87673 V 575.73352 516.69988 H 387.8534 294.83097 l 0.95612,16.06288 c 1.30775,21.9702 4.75275,47.94211 9.42837,71.08079 4.07342,20.15846 14.36602,58.50514 15.69574,58.47694 0.41999,-0.009 9.59398,-2.56236 20.38665,-5.67435 z m 344.98381,-15.36968 c 10.1347,-36.4865 16.4197,-73.53882 18.2857,-107.79979 l 0.9137,-16.77679 h -93.0271 -93.02722 v 59.25419 59.25419 l 10.35163,0.0143 c 31.72057,0.0421 102.40649,12.30286 138.85469,24.08491 4.7118,1.5231 9.2941,2.82788 10.1829,2.89952 0.8993,0.0725 4.2102,-9.20945 7.4657,-20.92998 z M 258.6131,462.56423 c 2.14971,-39.98029 11.63091,-89.45225 25.8067,-134.65699 1.16362,-3.71065 1.66934,-7.01121 1.12379,-7.33457 -0.54554,-0.32334 -7.41704,-3.30133 -15.27001,-6.61772 -20.25121,-8.55232 -47.4441,-22.55508 -69.39728,-35.73559 -17.36279,-10.42448 -19.01206,-11.12703 -20.78967,-8.85597 -7.66592,9.79399 -24.09058,37.79235 -34.11335,58.15143 -14.38414,29.21829 -25.89687,62.72519 -31.92364,92.91124 -4.15433,20.80767 -7.2605,43.95136 -7.2605,54.0971 v 5.05362 h 75.4546 75.4546 z M 480.87582,420.60479 V 361.6328 l -23.62743,-1.78411 c -39.90683,-3.01337 -78.77477,-9.97502 -117.18729,-20.98946 -9.85993,-2.82725 -18.16857,-4.89902 -18.46364,-4.60394 -0.29508,0.29507 -2.8407,8.53692 -5.65693,18.3152 -10.98232,38.13181 -17.4756,74.52021 -20.05196,112.37121 l -0.99614,14.63508 h 92.99169 92.9917 z m 224.16644,52.50623 c 0,-20.24145 -7.7117,-71.84751 -15.0933,-101.00287 -3.2974,-13.02381 -10.4313,-36.92321 -11.3071,-37.88007 -0.2144,-0.23421 -8.0154,1.7882 -17.3357,4.49424 -18.7042,5.43056 -49.5518,12.34336 -70.4888,15.79619 -15.04405,2.481 -55.54405,6.54989 -65.19479,6.54989 h -6.19583 v 59.25419 59.25419 h 92.80772 92.8078 z m 187.9753,-7.65026 c -2.6388,-40.26622 -16.0391,-90.56503 -35.27,-132.38819 -8.6017,-18.70691 -22.712,-42.53139 -38.6757,-65.30229 -0.5001,-0.71335 -3.7127,0.61469 -7.1391,2.95117 -17.1277,11.67962 -52.0743,30.20523 -80.476,42.66131 -11.0246,4.83505 -16.9584,8.18503 -16.6419,9.39538 0.2705,1.03458 3.2618,11.51879 6.6475,23.29824 10.6985,37.22281 18.3985,80.72105 20.0934,113.51103 0.4669,9.03091 1.0961,17.22298 1.3983,18.2046 0.4305,1.39827 16.8384,1.78477 75.7691,1.78477 h 75.2195 z M 480.87582,215.4316 V 106.9179 h -4.46967 c -3.88059,0 -7.6129,3.15205 -28.31857,23.91585 -45.0121,45.13845 -79.58643,94.4105 -104.99791,149.63305 -4.29372,9.3308 -7.33474,17.40684 -6.75785,17.94673 2.14436,2.00682 33.23952,10.12342 56.73357,14.80885 26.59414,5.3037 55.357,8.92301 83.17004,10.46555 l 4.64039,0.25736 z M 562.975,320.22005 c 32.09706,-3.43973 96.71336,-17.45692 101.21246,-21.95599 1.632,-1.63199 -21.0573,-47.71035 -34.1081,-69.26825 C 608.43506,193.24296 580.1317,157.78635 548.30187,126.55032 531.26731,109.83354 527.63764,106.9179 523.86149,106.9179 h -4.43475 v 108.61182 108.61183 l 11.77944,-0.88967 c 6.4787,-0.48932 20.77466,-1.85365 31.76882,-3.03183 z M 303.67741,277.16008 c 7.03509,-16.83911 28.68595,-57.60228 40.27077,-75.81977 14.94624,-23.50342 34.06491,-49.18659 51.14052,-68.69991 7.205,-8.23358 12.52985,-15.1602 11.83299,-15.39248 -1.5862,-0.52874 -29.60771,7.92543 -46.69597,14.0883 -31.0603,11.20187 -77.69933,37.86475 -106.37197,60.81136 -13.05676,10.44928 -47.11779,42.89633 -47.11779,44.88511 0,2.92477 41.41892,25.99853 69.24887,38.57733 11.77945,5.32417 22.05969,9.69275 22.84499,9.70797 0.78529,0.0153 2.96671,-3.65584 4.84759,-8.15791 z m 418.67345,-0.45998 c 18.4778,-8.15605 56.1368,-28.18428 67.4509,-35.87239 l 5.0611,-3.43911 -17.4249,-17.23346 c -34.9914,-34.60693 -72.1044,-60.24786 -115.6429,-79.89618 -14.0189,-6.32657 -54.9121,-20.51836 -65.2665,-22.65044 l -4.9973,-1.02901 2.9986,3.37912 c 25.5509,28.79298 48.743,59.63075 65.8097,87.50501 11.7491,19.18923 31.2717,56.71718 37.0098,71.14327 1.4826,3.72722 3.2826,6.77917 4,6.78211 0.7175,0.003 10.1682,-3.90706 21.0015,-8.68892 z"
     id="path864" />
  <rect
     style="fill:none;stroke:none;stroke-width:4.9007"
     id="rect1165"
     width="1000"
     height="1000"
     x="0"
     y="0"
     ry="0" />
</svg>
