<?xml version="1.0" encoding="UTF-8" standalone="no"?>
<!-- Created with Inkscape (http://www.inkscape.org/) -->

<svg
   width="1000"
   height="1000"
   viewBox="0 0 264.58333 264.58334"
   version="1.1"
   id="svg39274"
   inkscape:version="1.1 (c68e22c387, 2021-05-23)"
   sodipodi:docname="revert.svg"
   inkscape:export-filename="E:\projects\conan-guide\resources\icon\light\revert.png"
   inkscape:export-xdpi="24.576"
   inkscape:export-ydpi="24.576"
   xmlns:inkscape="http://www.inkscape.org/namespaces/inkscape"
   xmlns:sodipodi="http://sodipodi.sourceforge.net/DTD/sodipodi-0.dtd"
   xmlns="http://www.w3.org/2000/svg"
   xmlns:svg="http://www.w3.org/2000/svg">
  <sodipodi:namedview
     id="namedview39276"
     pagecolor="#ffffff"
     bordercolor="#666666"
     borderopacity="1.0"
     inkscape:pageshadow="2"
     inkscape:pageopacity="0.0"
     inkscape:pagecheckerboard="0"
     inkscape:document-units="mm"
     showgrid="false"
     units="px"
     inkscape:zoom="0.52410024"
     inkscape:cx="474.14594"
     inkscape:cy="413.08892"
     inkscape:window-width="1920"
     inkscape:window-height="1017"
     inkscape:window-x="1912"
     inkscape:window-y="-8"
     inkscape:window-maximized="1"
     inkscape:current-layer="layer1" />
  <defs
     id="defs39271" />
  <g
     inkscape:label="Layer 1"
     inkscape:groupmode="layer"
     id="layer1">
    <rect
       style="fill:none;fill-opacity:1;stroke-width:0.45102"
       id="rect41834"
       width="264.58334"
       height="264.58334"
       x="0"
       y="0" />
    <path
       style="fill:#505050;fill-opacity:1;stroke-width:0.366727"
       d="m 237.77153,245.09069 c 0.005,-0.16085 0.39216,-1.87234 0.85868,-3.80318 2.66973,-11.04907 5.43048,-26.17416 6.69268,-36.66666 1.18066,-9.81455 1.70687,-22.1762 1.34488,-31.59571 -0.55176,-14.35837 -2.58456,-25.72013 -6.70515,-37.47623 -1.72213,-4.91335 -5.88796,-13.62222 -7.94389,-16.60714 -0.53938,-0.78311 -1.29098,-1.90867 -1.67025,-2.50125 -3.43487,-5.36694 -8.91458,-11.50675 -15.00977,-16.817955 -10.69784,-9.321867 -26.19193,-16.87504 -44.29132,-21.591451 -7.43126,-1.936475 -21.10673,-4.184734 -30.68484,-5.044617 -5.89965,-0.52965 -18.43791,-1.184974 -22.6689,-1.184806 l -3.36153,1.28e-4 V 48.480231 25.158643 l -0.77574,-1.717842 c -1.10443,-2.445714 -2.9367,-3.976785 -5.03164,-4.204531 -1.71927,-0.186898 -3.84375,0.368556 -4.62518,1.209282 -0.2353,0.253151 -1.669,1.563521 -3.18601,2.911931 -1.516992,1.34841 -2.990912,2.665303 -3.275332,2.926429 -0.28447,0.261128 -1.91336,1.70124 -3.61981,3.200256 -1.70645,1.499014 -3.33551,2.939368 -3.62012,3.20079 -0.59765,0.548934 -4.12578,3.71102 -5.87523,5.265664 -8.19163,7.279508 -11.04903,9.809807 -14.12198,12.505367 -1.99107,1.746546 -3.69769,3.278917 -3.79251,3.40527 -0.0949,0.126351 -1.56873,1.445122 -3.27535,2.930594 -1.70662,1.485468 -3.18054,2.794545 -3.27536,2.909054 -0.0949,0.114509 -0.79298,0.724514 -1.55148,1.355569 -0.75851,0.631053 -1.45668,1.249339 -1.55148,1.373968 -0.0949,0.124626 -1.56871,1.441983 -3.27534,2.927453 -1.70663,1.485473 -3.18056,2.801965 -3.27535,2.925533 -0.0949,0.123571 -1.56874,1.443425 -3.27537,2.933022 -1.7066,1.489591 -3.88968,3.415516 -4.85124,4.279835 -0.96156,0.864313 -2.34704,2.098082 -3.07884,2.741695 -1.29147,1.135847 -4.98619,4.431302 -6.03359,5.381558 -0.2846,0.25823 -1.91366,1.689813 -3.62012,3.181299 -1.70645,1.491494 -3.18021,2.819723 -3.27502,2.951624 -0.0949,0.131886 -1.10025,1.017968 -2.23431,1.969044 -5.1384,4.309278 -6.04791,5.670781 -6.03267,9.030523 0.0178,3.65248 1.05148,4.88097 12.13552,14.4052 0.58731,0.50468 1.94618,1.70748 3.01965,2.67291 2.65411,2.38692 3.70509,3.31968 8.10946,7.19729 5.40132,4.75528 16.48272,14.56398 18.44575,16.32722 0.28461,0.25566 1.91366,1.6913 3.62011,3.19032 1.70645,1.49902 3.33536,2.93979 3.61981,3.20174 0.28444,0.26193 2.22377,1.97416 4.30967,3.80493 2.08588,1.83077 5.26642,4.64171 7.06786,6.24655 1.80144,1.60484 4.98198,4.42232 7.06785,6.26109 5.2769,4.65172 5.91838,5.2209 8.1265,7.21055 1.07148,0.96542 2.45974,2.19414 3.08511,2.7305 2.04604,1.7548 6.361492,5.63657 6.835492,6.14857 1.4791,1.5977 4.14905,2.29546 6.29074,1.64405 1.86968,-0.56863 3.79552,-2.74158 4.37746,-4.93911 0.30676,-1.15844 0.41809,-7.60721 0.41809,-24.22093 v -22.64214 l 8.18837,0.16368 c 14.86524,0.297 27.65798,1.41282 38.01129,3.3155 5.01959,0.92245 6.44132,1.20061 7.75743,1.51777 0.75852,0.1827 2.30999,0.54721 3.44774,0.80984 8.6368,1.99373 18.90367,5.93455 26.15967,10.04107 7.34641,4.15773 12.46053,8.16651 17.75922,13.92094 15.56909,16.90826 22.69815,41.73825 22.03597,76.74965 -0.0924,4.88076 -0.1145,8.87411 -0.0493,8.87411 0.0654,0 0.12326,-0.13155 0.12909,-0.29256 z"
       id="path4279" />
  </g>
</svg>
